<svg xmlns="http://www.w3.org/2000/svg" viewBox="0 0 600 600"><g id="pois"><circle cx="44" cy="44" r="3.5"/><path d="M44,41a3,3,0,1,1-3,3,3,3,0,0,1,3-3m0-1a4,4,0,1,0,4,4,4,4,0,0,0-4-4Z"/><circle cx="144" cy="44" r="3.5"/><path d="M144,41a3,3,0,1,1-3,3,3,3,0,0,1,3-3m0-1a4,4,0,1,0,4,4,4,4,0,0,0-4-4Z"/><circle cx="244" cy="44" r="3.5"/><path d="M244,41a3,3,0,1,1-3,3,3,3,0,0,1,3-3m0-1a4,4,0,1,0,4,4,4,4,0,0,0-4-4Z"/><circle cx="344" cy="44" r="3.5"/><path d="M344,41a3,3,0,1,1-3,3,3,3,0,0,1,3-3m0-1a4,4,0,1,0,4,4,4,4,0,0,0-4-4Z"/><circle cx="444" cy="44" r="3.5"/><path d="M444,41a3,3,0,1,1-3,3,3,3,0,0,1,3-3m0-1a4,4,0,1,0,4,4,4,4,0,0,0-4-4Z"/><circle cx="544" cy="44" r="3.5"/><path d="M544,41a3,3,0,1,1-3,3,3,3,0,0,1,3-3m0-1a4,4,0,1,0,4,4,4,4,0,0,0-4-4Z"/><circle cx="44" cy="144" r="3.5"/><path d="M44,141a3,3,0,1,1-3,3,3,3,0,0,1,3-3m0-1a4,4,0,1,0,4,4,4,4,0,0,0-4-4Z"/><circle cx="144" cy="144" r="3.5"/><path d="M144,141a3,3,0,1,1-3,3,3,3,0,0,1,3-3m0-1a4,4,0,1,0,4,4,4,4,0,0,0-4-4Z"/><circle cx="244" cy="144" r="3.5"/><path d="M244,141a3,3,0,1,1-3,3,3,3,0,0,1,3-3m0-1a4,4,0,1,0,4,4,4,4,0,0,0-4-4Z"/><circle cx="344" cy="144" r="3.5"/><path d="M344,141a3,3,0,1,1-3,3,3,3,0,0,1,3-3m0-1a4,4,0,1,0,4,4,4,4,0,0,0-4-4Z"/><circle cx="444" cy="144" r="3.5"/><path d="M444,141a3,3,0,1,1-3,3,3,3,0,0,1,3-3m0-1a4,4,0,1,0,4,4,4,4,0,0,0-4-4Z"/><circle cx="544" cy="144" r="3.5"/><path d="M544,141a3,3,0,1,1-3,3,3,3,0,0,1,3-3m0-1a4,4,0,1,0,4,4,4,4,0,0,0-4-4Z"/><circle cx="44" cy="244" r="3.5"/><path d="M44,241a3,3,0,1,1-3,3,3,3,0,0,1,3-3m0-1a4,4,0,1,0,4,4,4,4,0,0,0-4-4Z"/><circle cx="144" cy="244" r="3.5"/><path d="M144,241a3,3,0,1,1-3,3,3,3,0,0,1,3-3m0-1a4,4,0,1,0,4,4,4,4,0,0,0-4-4Z"/><circle cx="244" cy="244" r="3.5"/><path d="M244,241a3,3,0,1,1-3,3,3,3,0,0,1,3-3m0-1a4,4,0,1,0,4,4,4,4,0,0,0-4-4Z"/><circle cx="344" cy="244" r="3.5"/><path d="M344,241a3,3,0,1,1-3,3,3,3,0,0,1,3-3m0-1a4,4,0,1,0,4,4,4,4,0,0,0-4-4Z"/><circle cx="444" cy="244" r="3.5"/><path d="M444,241a3,3,0,1,1-3,3,3,3,0,0,1,3-3m0-1a4,4,0,1,0,4,4,4,4,0,0,0-4-4Z"/><circle cx="544" cy="244" r="3.5"/><path d="M544,241a3,3,0,1,1-3,3,3,3,0,0,1,3-3m0-1a4,4,0,1,0,4,4,4,4,0,0,0-4-4Z"/><circle cx="44" cy="344" r="3.5"/><path d="M44,341a3,3,0,1,1-3,3,3,3,0,0,1,3-3m0-1a4,4,0,1,0,4,4,4,4,0,0,0-4-4Z"/><circle cx="144" cy="344" r="3.5"/><path d="M144,341a3,3,0,1,1-3,3,3,3,0,0,1,3-3m0-1a4,4,0,1,0,4,4,4,4,0,0,0-4-4Z"/><circle cx="244" cy="344" r="3.5"/><path d="M244,341a3,3,0,1,1-3,3,3,3,0,0,1,3-3m0-1a4,4,0,1,0,4,4,4,4,0,0,0-4-4Z"/><circle cx="344" cy="344" r="3.5"/><path d="M344,341a3,3,0,1,1-3,3,3,3,0,0,1,3-3m0-1a4,4,0,1,0,4,4,4,4,0,0,0-4-4Z"/><circle cx="444" cy="344" r="3.5"/><path d="M444,341a3,3,0,1,1-3,3,3,3,0,0,1,3-3m0-1a4,4,0,1,0,4,4,4,4,0,0,0-4-4Z"/><circle cx="544" cy="344" r="3.5"/><path d="M544,341a3,3,0,1,1-3,3,3,3,0,0,1,3-3m0-1a4,4,0,1,0,4,4,4,4,0,0,0-4-4Z"/><circle cx="44" cy="444" r="3.5"/><path d="M44,441a3,3,0,1,1-3,3,3,3,0,0,1,3-3m0-1a4,4,0,1,0,4,4,4,4,0,0,0-4-4Z"/><circle cx="144" cy="444" r="3.5"/><path d="M144,441a3,3,0,1,1-3,3,3,3,0,0,1,3-3m0-1a4,4,0,1,0,4,4,4,4,0,0,0-4-4Z"/><circle cx="244" cy="444" r="3.5"/><path d="M244,441a3,3,0,1,1-3,3,3,3,0,0,1,3-3m0-1a4,4,0,1,0,4,4,4,4,0,0,0-4-4Z"/><circle cx="344" cy="444" r="3.5"/><path d="M344,441a3,3,0,1,1-3,3,3,3,0,0,1,3-3m0-1a4,4,0,1,0,4,4,4,4,0,0,0-4-4Z"/><circle cx="444" cy="444" r="3.5"/><path d="M444,441a3,3,0,1,1-3,3,3,3,0,0,1,3-3m0-1a4,4,0,1,0,4,4,4,4,0,0,0-4-4Z"/><circle cx="544" cy="444" r="3.5"/><path d="M544,441a3,3,0,1,1-3,3,3,3,0,0,1,3-3m0-1a4,4,0,1,0,4,4,4,4,0,0,0-4-4Z"/><circle cx="44" cy="544" r="3.5"/><path d="M44,541a3,3,0,1,1-3,3,3,3,0,0,1,3-3m0-1a4,4,0,1,0,4,4,4,4,0,0,0-4-4Z"/><circle cx="144" cy="544" r="3.5"/><path d="M144,541a3,3,0,1,1-3,3,3,3,0,0,1,3-3m0-1a4,4,0,1,0,4,4,4,4,0,0,0-4-4Z"/><circle cx="244" cy="544" r="3.5"/><path d="M244,541a3,3,0,1,1-3,3,3,3,0,0,1,3-3m0-1a4,4,0,1,0,4,4,4,4,0,0,0-4-4Z"/><circle cx="344" cy="544" r="3.5"/><path d="M344,541a3,3,0,1,1-3,3,3,3,0,0,1,3-3m0-1a4,4,0,1,0,4,4,4,4,0,0,0-4-4Z"/><circle cx="444" cy="544" r="3.5"/><path d="M444,541a3,3,0,1,1-3,3,3,3,0,0,1,3-3m0-1a4,4,0,1,0,4,4,4,4,0,0,0-4-4Z"/><circle cx="544" cy="544" r="3.5"/><path d="M544,541a3,3,0,1,1-3,3,3,3,0,0,1,3-3m0-1a4,4,0,1,0,4,4,4,4,0,0,0-4-4Z"/></g></svg>