<?xml version="1.0" encoding="UTF-8"?><svg xmlns="http://www.w3.org/2000/svg" viewBox="0 0 1080 1080"><defs><style>.d{fill:#fff;}.e{fill:#d8d8d8;}.f{fill:#1d1d1b;}</style></defs><g id="a"/><g id="b"><g id="c"><rect class="f" x="0" y="0" width="1080" height="1080"/><g><path class="d" d="M750.82,869.72c-12.31,0-22.32-10.01-22.32-22.32V312L348.57,858.57c-.64,1.12-1.4,2.21-2.24,3.22l-.97,1.39c-3.92,3.93-9.07,6.21-14.55,6.49-.24,.02-.49,.03-.74,.04l-.72,.02h-64.7c-12.21,0-22.15-9.94-22.15-22.15V242.87c0-12.21,9.94-22.15,22.15-22.15h64.7c12.21,0,22.15,9.94,22.15,22.15V778.11L734.41,227.26c4.22-4.24,9.77-6.53,15.68-6.53h.26s.36-.01,.47-.01h64.37c12.31,0,22.32,10.01,22.32,22.32V847.4c0,12.31-10.01,22.32-22.32,22.32h-64.37Z"/><path class="e" d="M815.18,221.22c12.05,0,21.82,9.77,21.82,21.82V847.4c0,12.05-9.77,21.82-21.82,21.82h-64.37c-12.05,0-21.82-9.77-21.82-21.82V310.41L348.16,858.28c-.64,1.13-1.38,2.19-2.21,3.18l-.99,1.43c-3.94,3.94-9.02,6.01-14.17,6.27-.24,.02-.48,.03-.73,.03-.16,0-.31,.01-.47,.01h-.02c-.07,0-.14,0-.22,0h-64.7c-11.96,0-21.65-9.69-21.65-21.65V242.87c0-11.96,9.69-21.65,21.65-21.65h64.7c11.96,0,21.65,9.69,21.65,21.65V779.71L734.82,227.55c4.22-4.22,9.74-6.32,15.27-6.32,.08,0,.17,0,.25,0,.16,0,.32-.01,.47-.01h64.37m0-1h-64.37c-.11,0-.22,0-.33,0h-.4c-6.04,0-11.72,2.35-15.98,6.61-.04,.04-.08,.09-.11,.14L352,776.52V242.87c0-12.49-10.16-22.65-22.65-22.65h-64.7c-12.49,0-22.65,10.16-22.65,22.65V847.57c0,12.49,10.16,22.65,22.65,22.65h64.7c.05,0,.1,0,.15,0h.08c.12,0,.22,0,.32,0h.18c.27-.01,.52-.03,.78-.04,5.6-.28,10.86-2.62,14.81-6.56,.04-.04,.08-.09,.11-.14l.97-1.39c.84-1.01,1.6-2.1,2.26-3.25L728,313.6V847.4c0,12.58,10.24,22.82,22.82,22.82h64.37c12.58,0,22.82-10.24,22.82-22.82V243.04c0-12.58-10.24-22.82-22.82-22.82h0Z"/></g><path class="d" d="M725.17,802.84c-15.36,8.09-32.91,12.59-51.53,12.38-58.26-.68-105.86-48.14-106.7-106.4-.87-60.37,47.81-109.59,107.99-109.59,18.11,0,35.18,4.46,50.17,12.34,4.21,2.21,9.41,1.33,12.6-2.2l.12-.14c3.76-4.14,3.65-10.45-.23-14.47-29.95-31.04-72.17-50.16-118.85-49.52-89.04,1.22-160.84,75.03-159.72,164.07,1.12,88.51,73.21,159.92,161.99,159.92,45.86,0,87.26-19.06,116.73-49.69,3.82-3.97,3.8-10.24,.09-14.32l-.12-.13c-3.17-3.51-8.35-4.44-12.53-2.24Z"/><path class="d" d="M421.18,349.6l39.2-22.63c2.84-1.64,6.42-1.26,8.86,.94l47.05,53.51c5.43,4.92,13.98,0,12.48-7.17l-22.58-67.38c-.67-3.21,.79-6.48,3.64-8.12l39.39-22.62c6.35-3.65,4.33-13.3-2.96-14.08l-45.16-4.85c-3.26-.35-5.92-2.76-6.59-5.97l-9.34-44.45c-1.51-7.17-11.31-8.22-14.31-1.54l-18.57,41.45c-1.34,2.99-4.45,4.78-7.71,4.43l-45.16-4.85c-7.29-.78-11.32,8.22-5.88,13.13l33.69,30.47c2.43,2.2,3.17,5.71,1.83,8.7l-18.53,41.37c-3,6.7,4.33,13.31,10.69,9.64Z"/></g></g></svg>