<?xml version="1.0" encoding="UTF-8"?><svg xmlns="http://www.w3.org/2000/svg" viewBox="0 0 595.28 595.28"><defs><style>.d{fill:#fed478;}.e{fill:#ed6e98;}.f{fill:#b1b1d9;}</style></defs><g id="a"/><g id="b"><g id="c"><path class="e" d="M236.98,163.73c0-5.46-10.88-2.83-21.05,2.69-19.77,10.73-46.58,33.5-53.65,34.5-.2,6.66-9.99,31.45-5.93,31.49,18.05,.17,42.63-20.37,43.5-20.89-14.33,59.32-20.04,111.2-22.09,139.01-.84,11.35,24.93,8.12,27.21,4.56,0,0,63.8-123.5,80.35-152.71-15.98,65.52-22.79,125.13-24.48,148.15-.84,11.35,24.93,8.12,27.21,4.56,0,0,61.95-117.13,77.9-146.73-22.89,92.47-23,180.61-22.31,209.63,.3,12.36,3.35,37.93,15.57,44.73,10.55,5.87,32.94,.07,46.17-8.71,5.55-3.69,3.41-10.4-2.86-8.16-5.65,2.02-11.6,3.14-14.48,.49-8.21-7.56-10.42-40.44-8.94-88.66,2.31-75.02,24-161.79,23.96-193.95,0-5.46-25.6-.95-37.08,19.31-34.52,60.91-63.98,120.86-71.61,134.43,3.91-38.72,25.69-100.32,25.69-153.75,0-5.46-25.6-.95-37.16,19.31-34.7,60.81-63.98,120.86-71.61,134.43,3.91-38.72,25.69-100.32,25.69-153.75"/><path class="d" d="M297.65,58.16s4.65,14.5,8.56,17.35c3.91,2.84,19.14,2.78,19.14,2.78,0,0-12.36,8.9-13.85,13.5-1.49,4.6,3.27,19.06,3.27,19.06,0,0-12.29-9-17.12-9s-17.12,9-17.12,9c0,0,4.76-14.47,3.27-19.06-1.49-4.6-13.85-13.5-13.85-13.5,0,0,15.23,.06,19.14-2.78,3.91-2.84,8.56-17.35,8.56-17.35Z"/><path class="d" d="M349.01,486.92c-2.2,1.76-4.59,3.35-7.16,4.74-23.18,12.47-52.07,3.79-64.54-19.38-12.47-23.18-3.79-52.07,19.38-64.54,2.57-1.38,5.21-2.49,7.89-3.36-9.59-.6-19.41,1.36-28.44,6.22-26.18,14.09-35.76,47.14-21.4,73.83,14.36,26.69,47.22,36.9,73.4,22.82,9.03-4.86,16.08-11.98,20.86-20.31Z"/><path class="f" d="M0,0V595.28H595.28V0H0ZM297.65,582.07c-37.59,0-187.99-127.34-187.99-284.43S260.06,13.21,297.65,13.21s187.99,127.34,187.99,284.43-152.05,284.43-187.99,284.43Z"/></g></g></svg>