<?xml version="1.0" encoding="UTF-8"?>
<svg id="Livello_2" data-name="Livello 2" xmlns="http://www.w3.org/2000/svg" viewBox="0 0 1190.55 841.89">
  <defs>
    <style>
      .cls-1 {
        letter-spacing: -.04em;
      }

      .cls-2 {
        font-size: 24px;
      }

      .cls-2, .cls-3 {
        fill: #8c85bf;
      }

      .cls-2, .cls-4, .cls-5, .cls-6 {
        font-family: ArialRoundedMTBold, 'Arial Rounded MT Bold';
      }

      .cls-7, .cls-5 {
        fill: #fff;
      }

      .cls-8 {
        fill: #d8d8d8;
      }

      .cls-9 {
        letter-spacing: -.02em;
      }

      .cls-10 {
        letter-spacing: -.01em;
      }

      .cls-11 {
        fill: #f6eff7;
      }

      .cls-12 {
        fill: #e19db8;
      }

      .cls-13 {
        fill: #ffe4b4;
      }

      .cls-14 {
        fill: #9d9d9c;
      }

      .cls-4, .cls-15, .cls-6 {
        fill: #dc7aaf;
      }

      .cls-4, .cls-5 {
        font-size: 19.2px;
      }

      .cls-16 {
        fill: #c5add4;
      }

      .cls-17 {
        fill: #e4cde5;
      }

      .cls-18 {
        fill: #fff3de;
      }

      .cls-6 {
        font-size: 36px;
      }

      .cls-19 {
        fill: #e2b6d6;
      }

      .cls-20 {
        fill: #c6c6c6;
      }

      .cls-21 {
        fill: #ffda92;
      }

      .cls-22 {
        letter-spacing: -.04em;
      }

      .cls-23 {
        fill: #1d1d1b;
      }

      .cls-24 {
        fill: #ededed;
      }
    </style>
  </defs>
  <g id="basi">
    <rect class="cls-7" width="1190.55" height="841.89"/>
  </g>
  <g id="scritte">
    <g>
      <rect class="cls-20" x="816.94" y="260.21" width="141.73" height="141.73"/>
      <path class="cls-14" d="m923.92,289.24h-8.45s-.04,0-.06,0c-.74,0-1.48.27-2.04.83l-50.37,72.46v-70.45c0-1.57-1.27-2.84-2.84-2.84h-8.49c-1.57,0-2.84,1.27-2.84,2.84v79.36c0,1.57,1.27,2.84,2.84,2.84h8.49s.02,0,.03,0c.02,0,.04,0,.06,0,.03,0,.06,0,.1,0,.68-.03,1.34-.31,1.86-.82l.13-.19c.11-.13.21-.27.29-.42l49.98-71.9v70.47c0,1.58,1.28,2.86,2.86,2.86h8.45c1.58,0,2.86-1.28,2.86-2.86v-79.31c0-1.58-1.28-2.86-2.86-2.86Z"/>
      <g>
        <path class="cls-24" d="m898.44,374.78c-11.85,0-21.61-9.64-21.76-21.48-.15-11.99,9.47-21.87,21.45-22.04h.3c5.96,0,11.52,2.36,15.66,6.65.69.71.71,1.85.04,2.58-.37.41-.87.63-1.4.63-.3,0-.6-.07-.87-.22-1.94-1.02-4.14-1.56-6.35-1.56-3.69,0-7.15,1.45-9.74,4.08-2.59,2.63-3.99,6.11-3.93,9.8.11,7.34,6.17,13.38,13.51,13.47h.16c2.21,0,4.41-.54,6.36-1.57.26-.14.56-.21.86-.21.53,0,1.03.22,1.39.61.68.75.67,1.88,0,2.58-4.14,4.3-9.71,6.67-15.68,6.67Z"/>
        <path class="cls-8" d="m898.44,331.76c6.01,0,11.43,2.49,15.3,6.5.51.53.52,1.36.03,1.9,0,0-.01.01-.02.02-.27.29-.64.45-1.01.45-.22,0-.44-.05-.64-.16-1.97-1.03-4.21-1.62-6.58-1.62-7.9,0-14.29,6.46-14.17,14.38.11,7.65,6.36,13.87,14,13.96.06,0,.11,0,.17,0,2.38,0,4.62-.59,6.59-1.63.2-.1.42-.16.63-.16.38,0,.75.16,1.01.45,0,0,.01.01.02.02.49.54.49,1.36-.01,1.88-3.87,4.02-9.3,6.52-15.32,6.52-11.65,0-21.11-9.37-21.26-20.99-.15-11.68,9.28-21.37,20.96-21.53.1,0,.2,0,.3,0m0-1h-.31c-12.26.17-22.1,10.28-21.95,22.55.15,12.12,10.14,21.97,22.26,21.97,6.11,0,11.8-2.42,16.04-6.83.86-.89.87-2.32.03-3.25-.46-.51-1.1-.79-1.77-.79-.38,0-.76.09-1.1.27-1.88.99-3.99,1.51-6.13,1.51h-.16c-7.07-.08-12.91-5.91-13.01-12.98-.05-3.56,1.29-6.91,3.79-9.44,2.5-2.53,5.83-3.93,9.38-3.93,2.13,0,4.25.52,6.12,1.51.34.18.72.27,1.11.27.67,0,1.31-.28,1.75-.78.86-.94.84-2.38-.04-3.28-4.23-4.39-9.92-6.81-16.02-6.81h0Z"/>
      </g>
      <g>
        <path class="cls-24" d="m885.35,311.02c-.37,0-.71-.13-.99-.39l-6.21-7.06c-.05-.04-.17-.09-.29-.09-.09,0-.17.02-.25.07l-5.14,2.97c-.24.14-.49.21-.75.21h0c-.5,0-.98-.27-1.26-.69-.28-.43-.31-.94-.1-1.41l2.43-5.43c.09-.2.04-.42-.12-.57l-4.42-4c-.47-.42-.62-1.05-.39-1.64.22-.58.77-.96,1.38-.96.06,0,.11,0,.17,0,0,0,5.93.64,5.94.64.24,0,.42-.11.49-.29l2.44-5.44c.24-.54.76-.88,1.36-.88.72,0,1.32.49,1.46,1.19l1.23,5.83c.04.21.22.37.43.39l5.93.64c.65.07,1.17.53,1.3,1.18s-.15,1.27-.72,1.6l-5.17,2.97c-.19.11-.28.32-.24.53l2.95,8.79c.11.51,0,.95-.28,1.3-.29.35-.73.56-1.18.56Z"/>
        <path class="cls-8" d="m879.63,286.56c.43,0,.87.27.98.79l1.23,5.83c.09.42.44.74.87.78l5.93.64c.96.1,1.22,1.37.39,1.85l-5.17,2.97c-.37.21-.57.64-.48,1.07l2.96,8.84c.14.68-.4,1.2-.98,1.2-.23,0-.46-.08-.66-.26l-6.17-7.02c-.19-.17-.43-.26-.67-.26-.17,0-.34.04-.5.13l-5.14,2.97c-.16.1-.33.14-.5.14-.66,0-1.22-.7-.9-1.4l2.43-5.43c.18-.39.08-.85-.24-1.14l-4.42-4c-.68-.62-.23-1.73.66-1.73.04,0,.08,0,.12,0l5.93.64s.07,0,.11,0c.39,0,.74-.23.91-.59l2.44-5.44c.18-.4.54-.59.9-.59m0-1h0c-.79,0-1.49.45-1.81,1.18l-2.44,5.44-5.92-.64c-.08,0-.15-.01-.22-.01-.82,0-1.55.5-1.85,1.28-.3.77-.09,1.63.52,2.19l4.42,4-2.43,5.42c-.28.62-.23,1.33.14,1.89.37.57,1.01.92,1.68.92.35,0,.69-.09,1-.27l5.13-2.96,6.1,6.93s.05.06.08.08c.37.33.84.52,1.33.52.6,0,1.18-.28,1.56-.75.38-.46.52-1.07.39-1.66,0-.04-.02-.08-.03-.11l-2.93-8.73,5.16-2.96c.76-.44,1.14-1.28.96-2.14-.18-.86-.86-1.48-1.74-1.57l-5.93-.64-1.22-5.83c-.2-.93-1-1.58-1.95-1.58h0Z"/>
      </g>
    </g>
    <g>
      <rect class="cls-23" x="68.34" y="148.43" width="141.73" height="141.73"/>
      <g>
        <path class="cls-20" d="m175.32,177.46h-8.45s-.04,0-.06,0c-.74,0-1.48.27-2.04.83l-50.37,72.46v-70.45c0-1.57-1.27-2.84-2.84-2.84h-8.49c-1.57,0-2.84,1.27-2.84,2.84v79.36c0,1.57,1.27,2.84,2.84,2.84h8.49s.02,0,.03,0c.02,0,.04,0,.06,0,.03,0,.06,0,.1,0,.68-.03,1.34-.31,1.86-.82l.13-.19c.11-.13.21-.27.29-.42l49.98-71.9v70.47c0,1.58,1.28,2.86,2.86,2.86h8.45c1.58,0,2.86-1.28,2.86-2.86v-79.31c0-1.58-1.28-2.86-2.86-2.86Z"/>
        <path class="cls-7" d="m163.5,253.79c-2.02,1.06-4.32,1.65-6.76,1.62-7.65-.09-13.89-6.32-14-13.96-.11-7.92,6.27-14.38,14.17-14.38,2.38,0,4.62.59,6.58,1.62.55.29,1.23.17,1.65-.29,0,0,.01-.01.02-.02.49-.54.48-1.37-.03-1.9-3.93-4.07-9.47-6.58-15.6-6.5-11.68.16-21.11,9.85-20.96,21.53.15,11.62,9.61,20.99,21.26,20.99,6.02,0,11.45-2.5,15.32-6.52.5-.52.5-1.34.01-1.88,0,0-.01-.01-.02-.02-.42-.46-1.1-.58-1.64-.29Z"/>
        <path class="cls-7" d="m123.61,194.31l5.14-2.97c.37-.22.84-.17,1.16.12l6.17,7.02c.71.65,1.84,0,1.64-.94l-2.96-8.84c-.09-.42.1-.85.48-1.07l5.17-2.97c.83-.48.57-1.75-.39-1.85l-5.93-.64c-.43-.05-.78-.36-.87-.78l-1.23-5.83c-.2-.94-1.48-1.08-1.88-.2l-2.44,5.44c-.18.39-.58.63-1.01.58l-5.93-.64c-.96-.1-1.49,1.08-.77,1.72l4.42,4c.32.29.42.75.24,1.14l-2.43,5.43c-.39.88.57,1.75,1.4,1.27Z"/>
      </g>
    </g>
    <rect class="cls-21" x="550.99" y="44.9" width="554.99" height="67.36"/>
    <text class="cls-6" transform="translate(572.77 87.84)"><tspan x="0" y="0">un tocco di m</tspan><tspan class="cls-10" x="233.61" y="0">a</tspan><tspan x="254.53" y="0">gia...</tspan></text>
    <rect class="cls-21" x="54.9" y="474.52" width="554.99" height="67.36"/>
    <text class="cls-6" transform="translate(76.68 517.46)"><tspan x="0" y="0">... e di colo</tspan><tspan class="cls-9" x="189.09" y="0">r</tspan><tspan x="203.96" y="0">e!</tspan></text>
    <rect class="cls-11" x="68.34" y="74.85" width="438.7" height="41.1"/>
    <text class="cls-2" transform="translate(73.72 101.91)"><tspan x="0" y="0">una luna nascosta nella pancia</tspan></text>
    <rect class="cls-11" x="561.53" y="179.79" width="429.52" height="41.1"/>
    <text class="cls-2" transform="translate(566.91 206.85)"><tspan class="cls-9" x="0" y="0">r</tspan><tspan x="9.91" y="0">e-design “stella</tspan><tspan class="cls-9" x="190.46" y="0">r</tspan><tspan x="200.38" y="0">e” dell’</tspan><tspan class="cls-10" x="281.41" y="0">a</tspan><tspan x="295.36" y="0">post</tspan><tspan class="cls-1" x="346.36" y="0">r</tspan><tspan x="355.96" y="0">o</tspan><tspan class="cls-10" x="370.45" y="0">f</tspan><tspan x="378.13" y="0">o</tspan></text>
    <g>
      <rect class="cls-23" x="558.58" y="251.34" width="141.73" height="141.73"/>
      <g>
        <path class="cls-20" d="m665.56,280.37h-8.45s-.04,0-.06,0c-.74,0-1.48.27-2.04.83l-50.37,72.46v-70.45c0-1.57-1.27-2.84-2.84-2.84h-8.49c-1.57,0-2.84,1.27-2.84,2.84v79.36c0,1.57,1.27,2.84,2.84,2.84h8.49s.02,0,.03,0c.02,0,.04,0,.06,0,.03,0,.06,0,.1,0,.68-.03,1.34-.31,1.86-.82l.13-.19c.11-.13.21-.27.29-.42l49.98-71.9v70.47c0,1.58,1.28,2.86,2.86,2.86h8.45c1.58,0,2.86-1.28,2.86-2.86v-79.31c0-1.58-1.28-2.86-2.86-2.86Z"/>
        <path class="cls-7" d="m653.74,356.7c-2.02,1.06-4.32,1.65-6.76,1.62-7.65-.09-13.89-6.32-14-13.96-.11-7.92,6.27-14.38,14.17-14.38,2.38,0,4.62.59,6.58,1.62.55.29,1.23.17,1.65-.29,0,0,.01-.01.02-.02.49-.54.48-1.37-.03-1.9-3.93-4.07-9.47-6.58-15.6-6.5-11.68.16-21.11,9.85-20.96,21.53.15,11.62,9.61,20.99,21.26,20.99,6.02,0,11.45-2.5,15.32-6.52.5-.52.5-1.34.01-1.88,0,0-.01-.01-.02-.02-.42-.46-1.1-.58-1.64-.29Z"/>
        <path class="cls-7" d="m613.85,297.22l5.14-2.97c.37-.22.84-.17,1.16.12l6.17,7.02c.71.65,1.84,0,1.64-.94l-2.96-8.84c-.09-.42.1-.85.48-1.07l5.17-2.97c.83-.48.57-1.75-.39-1.85l-5.93-.64c-.43-.05-.78-.36-.87-.78l-1.23-5.83c-.2-.94-1.48-1.08-1.88-.2l-2.44,5.44c-.18.39-.58.63-1.01.58l-5.93-.64c-.96-.1-1.49,1.08-.77,1.72l4.42,4c.32.29.42.75.24,1.14l-2.43,5.43c-.39.88.57,1.75,1.4,1.27Z"/>
      </g>
    </g>
    <rect class="cls-3" x="707.1" y="473.44" width="113.39" height="113.39"/>
    <rect class="cls-15" x="707.1" y="586.83" width="113.39" height="113.39"/>
    <rect class="cls-17" x="933.87" y="473.44" width="113.39" height="113.39"/>
    <rect class="cls-16" x="820.48" y="473.44" width="113.39" height="113.39"/>
    <rect class="cls-12" x="820.48" y="586.83" width="113.39" height="113.39"/>
    <rect class="cls-21" x="707.1" y="700.21" width="113.39" height="113.39"/>
    <rect class="cls-19" x="933.87" y="586.83" width="113.39" height="113.39"/>
    <rect class="cls-13" x="820.48" y="700.21" width="113.39" height="113.39"/>
    <rect class="cls-18" x="933.87" y="700.21" width="113.39" height="113.39"/>
    <text class="cls-5" transform="translate(721.57 538.61)"><tspan x="0" y="0">#8C85BF</tspan></text>
    <text class="cls-5" transform="translate(832.25 538.61)"><tspan x="0" y="0">#C5ADD4</tspan></text>
    <text class="cls-5" transform="translate(946.84 538.61)"><tspan x="0" y="0">#E4CDE5</tspan></text>
    <text class="cls-5" transform="translate(718.97 648.73)"><tspan x="0" y="0">#DC7AAF</tspan></text>
    <text class="cls-5" transform="translate(834.35 648.73)"><tspan x="0" y="0">#E18DB8</tspan></text>
    <text class="cls-5" transform="translate(947.74 648.73)"><tspan x="0" y="0">#E2B6D6</tspan></text>
    <text class="cls-5" transform="translate(721.84 758.86)"><tspan x="0" y="0">#FF</tspan><tspan class="cls-22" x="33.79" y="0">D</tspan><tspan x="47.27" y="0">A92</tspan></text>
    <text class="cls-4" transform="translate(855.37 758.86)"><tspan x="0" y="0">#???</tspan></text>
    <text class="cls-4" transform="translate(968.76 758.86)"><tspan x="0" y="0">#???</tspan></text>
  </g>
</svg>