<?xml version="1.0" encoding="UTF-8"?>
<svg id="Livello_2" data-name="Livello 2" xmlns="http://www.w3.org/2000/svg" viewBox="0 0 1190.55 841.89">
  <defs>
    <style>
      .cls-1 {
        fill: #fff;
      }

      .cls-2 {
        letter-spacing: -.02em;
      }

      .cls-3 {
        letter-spacing: -.02em;
      }

      .cls-4 {
        fill: #8c85bf;
      }

      .cls-5 {
        font-size: 40px;
      }

      .cls-5, .cls-6, .cls-7 {
        font-family: ArialRoundedMTBold, 'Arial Rounded MT Bold';
      }

      .cls-5, .cls-6, .cls-7, .cls-8 {
        fill: #1d1d1b;
      }

      .cls-9 {
        letter-spacing: -.01em;
      }

      .cls-10 {
        letter-spacing: .01em;
      }

      .cls-11 {
        fill: #f6eff7;
      }

      .cls-12 {
        fill: #e19db8;
      }

      .cls-13 {
        fill: #ffe4b4;
      }

      .cls-14 {
        letter-spacing: -.01em;
      }

      .cls-15 {
        fill: #c5add4;
      }

      .cls-16 {
        letter-spacing: -.01em;
      }

      .cls-17 {
        fill: #e4cde5;
      }

      .cls-18 {
        fill: #dc7aaf;
      }

      .cls-19 {
        font-size: 73.24px;
      }

      .cls-20 {
        font-size: 65.91px;
      }

      .cls-21 {
        fill: #fff3de;
      }

      .cls-22 {
        letter-spacing: -.01em;
      }

      .cls-23 {
        fill: #e2b6d6;
      }

      .cls-24 {
        fill: #ffda92;
      }

      .cls-6 {
        font-size: 48px;
      }
    </style>
  </defs>
  <g id="basi">
    <rect class="cls-1" width="1190.55" height="841.89"/>
  </g>
  <g id="layout">
    <rect class="cls-4" x="0" y="709.52" width="132.37" height="132.37"/>
    <g>
      <path class="cls-1" d="m99.92,736.63h-7.89s-.04,0-.06,0c-.69,0-1.38.25-1.9.77l-47.04,67.68v-65.8c0-1.47-1.19-2.65-2.65-2.65h-7.93c-1.47,0-2.65,1.19-2.65,2.65v74.12c0,1.47,1.19,2.65,2.65,2.65h7.93s.02,0,.03,0c.02,0,.04,0,.06,0,.03,0,.06,0,.09,0,.63-.03,1.25-.29,1.74-.77l.12-.18c.1-.12.19-.25.27-.39l46.68-67.15v65.82c0,1.48,1.2,2.67,2.67,2.67h7.89c1.48,0,2.67-1.2,2.67-2.67v-74.08c0-1.48-1.2-2.67-2.67-2.67Z"/>
      <path class="cls-1" d="m88.88,807.92c-1.88.99-4.03,1.54-6.32,1.52-7.14-.08-12.98-5.9-13.08-13.04-.11-7.4,5.86-13.43,13.24-13.43,2.22,0,4.31.55,6.15,1.51.52.27,1.15.16,1.54-.27,0,0,.01-.01.02-.02.46-.51.45-1.28-.03-1.77-3.67-3.8-8.85-6.15-14.57-6.07-10.91.15-19.71,9.2-19.58,20.11.14,10.85,8.97,19.6,19.85,19.6,5.62,0,10.7-2.34,14.31-6.09.47-.49.47-1.25.01-1.76,0,0,0-.01-.01-.02-.39-.43-1.02-.54-1.54-.27Z"/>
      <path class="cls-1" d="m51.62,752.37l4.8-2.77c.35-.2.79-.15,1.09.12l5.77,6.56c.67.6,1.71,0,1.53-.88l-2.77-8.26c-.08-.39.1-.79.45-.99l4.83-2.77c.78-.45.53-1.63-.36-1.73l-5.54-.59c-.4-.04-.73-.34-.81-.73l-1.14-5.45c-.18-.88-1.39-1.01-1.75-.19l-2.28,5.08c-.16.37-.55.59-.95.54l-5.54-.59c-.89-.1-1.39,1.01-.72,1.61l4.13,3.73c.3.27.39.7.22,1.07l-2.27,5.07c-.37.82.53,1.63,1.31,1.18Z"/>
    </g>
    <rect class="cls-15" x="131.97" y="709.52" width="132.37" height="132.37"/>
    <g>
      <path class="cls-1" d="m231.88,736.63h-7.89s-.04,0-.06,0c-.69,0-1.38.25-1.9.77l-47.04,67.68v-65.8c0-1.47-1.19-2.65-2.65-2.65h-7.93c-1.47,0-2.65,1.19-2.65,2.65v74.12c0,1.47,1.19,2.65,2.65,2.65h7.93s.02,0,.03,0c.02,0,.04,0,.06,0,.03,0,.06,0,.09,0,.63-.03,1.25-.29,1.74-.77l.12-.18c.1-.12.19-.25.27-.39l46.68-67.15v65.82c0,1.48,1.2,2.67,2.67,2.67h7.89c1.48,0,2.67-1.2,2.67-2.67v-74.08c0-1.48-1.2-2.67-2.67-2.67Z"/>
      <path class="cls-1" d="m220.85,807.92c-1.88.99-4.03,1.54-6.32,1.52-7.14-.08-12.98-5.9-13.08-13.04-.11-7.4,5.86-13.43,13.24-13.43,2.22,0,4.31.55,6.15,1.51.52.27,1.15.16,1.54-.27,0,0,.01-.01.02-.02.46-.51.45-1.28-.03-1.77-3.67-3.8-8.85-6.15-14.57-6.07-10.91.15-19.71,9.2-19.58,20.11.14,10.85,8.97,19.6,19.85,19.6,5.62,0,10.7-2.34,14.31-6.09.47-.49.47-1.25.01-1.76,0,0,0-.01-.01-.02-.39-.43-1.02-.54-1.54-.27Z"/>
      <path class="cls-1" d="m183.59,752.37l4.8-2.77c.35-.2.79-.15,1.09.12l5.77,6.56c.67.6,1.71,0,1.53-.88l-2.77-8.26c-.08-.39.1-.79.45-.99l4.83-2.77c.78-.45.53-1.63-.36-1.73l-5.54-.59c-.4-.04-.73-.34-.81-.73l-1.14-5.45c-.18-.88-1.39-1.01-1.75-.19l-2.28,5.08c-.16.37-.55.59-.95.54l-5.54-.59c-.89-.1-1.39,1.01-.72,1.61l4.13,3.73c.3.27.39.7.22,1.07l-2.27,5.07c-.37.82.53,1.63,1.31,1.18Z"/>
    </g>
    <rect class="cls-17" x="264.34" y="709.52" width="132.37" height="132.37"/>
    <g>
      <path class="cls-1" d="m364.26,736.63h-7.89s-.04,0-.06,0c-.69,0-1.38.25-1.9.77l-47.04,67.68v-65.8c0-1.47-1.19-2.65-2.65-2.65h-7.93c-1.47,0-2.65,1.19-2.65,2.65v74.12c0,1.47,1.19,2.65,2.65,2.65h7.93s.02,0,.03,0c.02,0,.04,0,.06,0,.03,0,.06,0,.09,0,.63-.03,1.25-.29,1.74-.77l.12-.18c.1-.12.19-.25.27-.39l46.68-67.15v65.82c0,1.48,1.2,2.67,2.67,2.67h7.89c1.48,0,2.67-1.2,2.67-2.67v-74.08c0-1.48-1.2-2.67-2.67-2.67Z"/>
      <path class="cls-1" d="m353.22,807.92c-1.88.99-4.03,1.54-6.32,1.52-7.14-.08-12.98-5.9-13.08-13.04-.11-7.4,5.86-13.43,13.24-13.43,2.22,0,4.31.55,6.15,1.51.52.27,1.15.16,1.54-.27,0,0,.01-.01.02-.02.46-.51.45-1.28-.03-1.77-3.67-3.8-8.85-6.15-14.57-6.07-10.91.15-19.71,9.2-19.58,20.11.14,10.85,8.97,19.6,19.85,19.6,5.62,0,10.7-2.34,14.31-6.09.47-.49.47-1.25.01-1.76,0,0,0-.01-.01-.02-.39-.43-1.02-.54-1.54-.27Z"/>
      <path class="cls-1" d="m315.97,752.37l4.8-2.77c.35-.2.79-.15,1.09.12l5.77,6.56c.67.6,1.71,0,1.53-.88l-2.77-8.26c-.08-.39.1-.79.45-.99l4.83-2.77c.78-.45.53-1.63-.36-1.73l-5.54-.59c-.4-.04-.73-.34-.81-.73l-1.14-5.45c-.18-.88-1.39-1.01-1.75-.19l-2.28,5.08c-.16.37-.55.59-.95.54l-5.54-.59c-.89-.1-1.39,1.01-.72,1.61l4.13,3.73c.3.27.39.7.22,1.07l-2.27,5.07c-.37.82.53,1.63,1.31,1.18Z"/>
    </g>
    <rect class="cls-18" x="396.72" y="709.52" width="132.37" height="132.37"/>
    <g>
      <path class="cls-1" d="m496.63,736.63h-7.89s-.04,0-.06,0c-.69,0-1.38.25-1.9.77l-47.04,67.68v-65.8c0-1.47-1.19-2.65-2.65-2.65h-7.93c-1.47,0-2.65,1.19-2.65,2.65v74.12c0,1.47,1.19,2.65,2.65,2.65h7.93s.02,0,.03,0c.02,0,.04,0,.06,0,.03,0,.06,0,.09,0,.63-.03,1.25-.29,1.74-.77l.12-.18c.1-.12.19-.25.27-.39l46.68-67.15v65.82c0,1.48,1.2,2.67,2.67,2.67h7.89c1.48,0,2.67-1.2,2.67-2.67v-74.08c0-1.48-1.2-2.67-2.67-2.67Z"/>
      <path class="cls-1" d="m485.6,807.92c-1.88.99-4.03,1.54-6.32,1.52-7.14-.08-12.98-5.9-13.08-13.04-.11-7.4,5.86-13.43,13.24-13.43,2.22,0,4.31.55,6.15,1.51.52.27,1.15.16,1.54-.27,0,0,.01-.01.02-.02.46-.51.45-1.28-.03-1.77-3.67-3.8-8.85-6.15-14.57-6.07-10.91.15-19.71,9.2-19.58,20.11.14,10.85,8.97,19.6,19.85,19.6,5.62,0,10.7-2.34,14.31-6.09.47-.49.47-1.25.01-1.76,0,0,0-.01-.01-.02-.39-.43-1.02-.54-1.54-.27Z"/>
      <path class="cls-1" d="m448.34,752.37l4.8-2.77c.35-.2.79-.15,1.09.12l5.77,6.56c.67.6,1.71,0,1.53-.88l-2.77-8.26c-.08-.39.1-.79.45-.99l4.83-2.77c.78-.45.53-1.63-.36-1.73l-5.54-.59c-.4-.04-.73-.34-.81-.73l-1.14-5.45c-.18-.88-1.39-1.01-1.75-.19l-2.28,5.08c-.16.37-.55.59-.95.54l-5.54-.59c-.89-.1-1.39,1.01-.72,1.61l4.13,3.73c.3.27.39.7.22,1.07l-2.27,5.07c-.37.82.53,1.63,1.31,1.18Z"/>
    </g>
    <rect class="cls-12" x="529.09" y="709.52" width="132.37" height="132.37"/>
    <g>
      <path class="cls-1" d="m629,736.63h-7.89s-.04,0-.06,0c-.69,0-1.38.25-1.9.77l-47.04,67.68v-65.8c0-1.47-1.19-2.65-2.65-2.65h-7.93c-1.47,0-2.65,1.19-2.65,2.65v74.12c0,1.47,1.19,2.65,2.65,2.65h7.93s.02,0,.03,0c.02,0,.04,0,.06,0,.03,0,.06,0,.09,0,.63-.03,1.25-.29,1.74-.77l.12-.18c.1-.12.19-.25.27-.39l46.68-67.15v65.82c0,1.48,1.2,2.67,2.67,2.67h7.89c1.48,0,2.67-1.2,2.67-2.67v-74.08c0-1.48-1.2-2.67-2.67-2.67Z"/>
      <path class="cls-1" d="m617.97,807.92c-1.88.99-4.03,1.54-6.32,1.52-7.14-.08-12.98-5.9-13.08-13.04-.11-7.4,5.86-13.43,13.24-13.43,2.22,0,4.31.55,6.15,1.51.52.27,1.15.16,1.54-.27,0,0,.01-.01.02-.02.46-.51.45-1.28-.03-1.77-3.67-3.8-8.85-6.15-14.57-6.07-10.91.15-19.71,9.2-19.58,20.11.14,10.85,8.97,19.6,19.85,19.6,5.62,0,10.7-2.34,14.31-6.09.47-.49.47-1.25.01-1.76,0,0,0-.01-.01-.02-.39-.43-1.02-.54-1.54-.27Z"/>
      <path class="cls-1" d="m580.71,752.37l4.8-2.77c.35-.2.79-.15,1.09.12l5.77,6.56c.67.6,1.71,0,1.53-.88l-2.77-8.26c-.08-.39.1-.79.45-.99l4.83-2.77c.78-.45.53-1.63-.36-1.73l-5.54-.59c-.4-.04-.73-.34-.81-.73l-1.14-5.45c-.18-.88-1.39-1.01-1.75-.19l-2.28,5.08c-.16.37-.55.59-.95.54l-5.54-.59c-.89-.1-1.39,1.01-.72,1.61l4.13,3.73c.3.27.39.7.22,1.07l-2.27,5.07c-.37.82.53,1.63,1.31,1.18Z"/>
    </g>
    <rect class="cls-23" x="661.06" y="709.52" width="132.37" height="132.37"/>
    <g>
      <path class="cls-1" d="m760.97,736.63h-7.89s-.04,0-.06,0c-.69,0-1.38.25-1.9.77l-47.04,67.68v-65.8c0-1.47-1.19-2.65-2.65-2.65h-7.93c-1.47,0-2.65,1.19-2.65,2.65v74.12c0,1.47,1.19,2.65,2.65,2.65h7.93s.02,0,.03,0c.02,0,.04,0,.06,0,.03,0,.06,0,.09,0,.63-.03,1.25-.29,1.74-.77l.12-.18c.1-.12.19-.25.27-.39l46.68-67.15v65.82c0,1.48,1.2,2.67,2.67,2.67h7.89c1.48,0,2.67-1.2,2.67-2.67v-74.08c0-1.48-1.2-2.67-2.67-2.67Z"/>
      <path class="cls-1" d="m749.94,807.92c-1.88.99-4.03,1.54-6.32,1.52-7.14-.08-12.98-5.9-13.08-13.04-.11-7.4,5.86-13.43,13.24-13.43,2.22,0,4.31.55,6.15,1.51.52.27,1.15.16,1.54-.27,0,0,.01-.01.02-.02.46-.51.45-1.28-.03-1.77-3.67-3.8-8.85-6.15-14.57-6.07-10.91.15-19.71,9.2-19.58,20.11.14,10.85,8.97,19.6,19.85,19.6,5.62,0,10.7-2.34,14.31-6.09.47-.49.47-1.25.01-1.76,0,0,0-.01-.01-.02-.39-.43-1.02-.54-1.54-.27Z"/>
      <path class="cls-1" d="m712.68,752.37l4.8-2.77c.35-.2.79-.15,1.09.12l5.77,6.56c.67.6,1.71,0,1.53-.88l-2.77-8.26c-.08-.39.1-.79.45-.99l4.83-2.77c.78-.45.53-1.63-.36-1.73l-5.54-.59c-.4-.04-.73-.34-.81-.73l-1.14-5.45c-.18-.88-1.39-1.01-1.75-.19l-2.28,5.08c-.16.37-.55.59-.95.54l-5.54-.59c-.89-.1-1.39,1.01-.72,1.61l4.13,3.73c.3.27.39.7.22,1.07l-2.27,5.07c-.37.82.53,1.63,1.31,1.18Z"/>
    </g>
    <rect class="cls-24" x="793.43" y="709.52" width="132.37" height="132.37"/>
    <g>
      <path class="cls-1" d="m893.35,736.63h-7.89s-.04,0-.06,0c-.69,0-1.38.25-1.9.77l-47.04,67.68v-65.8c0-1.47-1.19-2.65-2.65-2.65h-7.93c-1.47,0-2.65,1.19-2.65,2.65v74.12c0,1.47,1.19,2.65,2.65,2.65h7.93s.02,0,.03,0c.02,0,.04,0,.06,0,.03,0,.06,0,.09,0,.63-.03,1.25-.29,1.74-.77l.12-.18c.1-.12.19-.25.27-.39l46.68-67.15v65.82c0,1.48,1.2,2.67,2.67,2.67h7.89c1.48,0,2.67-1.2,2.67-2.67v-74.08c0-1.48-1.2-2.67-2.67-2.67Z"/>
      <path class="cls-1" d="m882.31,807.92c-1.88.99-4.03,1.54-6.32,1.52-7.14-.08-12.98-5.9-13.08-13.04-.11-7.4,5.86-13.43,13.24-13.43,2.22,0,4.31.55,6.15,1.51.52.27,1.15.16,1.54-.27,0,0,.01-.01.02-.02.46-.51.45-1.28-.03-1.77-3.67-3.8-8.85-6.15-14.57-6.07-10.91.15-19.71,9.2-19.58,20.11.14,10.85,8.97,19.6,19.85,19.6,5.62,0,10.7-2.34,14.31-6.09.47-.49.47-1.25.01-1.76,0,0,0-.01-.01-.02-.39-.43-1.02-.54-1.54-.27Z"/>
      <path class="cls-1" d="m845.05,752.37l4.8-2.77c.35-.2.79-.15,1.09.12l5.77,6.56c.67.6,1.71,0,1.53-.88l-2.77-8.26c-.08-.39.1-.79.45-.99l4.83-2.77c.78-.45.53-1.63-.36-1.73l-5.54-.59c-.4-.04-.73-.34-.81-.73l-1.14-5.45c-.18-.88-1.39-1.01-1.75-.19l-2.28,5.08c-.16.37-.55.59-.95.54l-5.54-.59c-.89-.1-1.39,1.01-.72,1.61l4.13,3.73c.3.27.39.7.22,1.07l-2.27,5.07c-.37.82.53,1.63,1.31,1.18Z"/>
    </g>
    <rect class="cls-13" x="925.8" y="709.52" width="132.37" height="132.37"/>
    <g>
      <path class="cls-1" d="m1025.72,736.63h-7.89s-.04,0-.06,0c-.69,0-1.38.25-1.9.77l-47.04,67.68v-65.8c0-1.47-1.19-2.65-2.65-2.65h-7.93c-1.47,0-2.65,1.19-2.65,2.65v74.12c0,1.47,1.19,2.65,2.65,2.65h7.93s.02,0,.03,0c.02,0,.04,0,.06,0,.03,0,.06,0,.09,0,.63-.03,1.25-.29,1.74-.77l.12-.18c.1-.12.19-.25.27-.39l46.68-67.15v65.82c0,1.48,1.2,2.67,2.67,2.67h7.89c1.48,0,2.67-1.2,2.67-2.67v-74.08c0-1.48-1.2-2.67-2.67-2.67Z"/>
      <path class="cls-1" d="m1014.69,807.92c-1.88.99-4.03,1.54-6.32,1.52-7.14-.08-12.98-5.9-13.08-13.04-.11-7.4,5.86-13.43,13.24-13.43,2.22,0,4.31.55,6.15,1.51.52.27,1.15.16,1.54-.27,0,0,.01-.01.02-.02.46-.51.45-1.28-.03-1.77-3.67-3.8-8.85-6.15-14.57-6.07-10.91.15-19.71,9.2-19.58,20.11.14,10.85,8.97,19.6,19.85,19.6,5.62,0,10.7-2.34,14.31-6.09.47-.49.47-1.25.01-1.76,0,0,0-.01-.01-.02-.39-.43-1.02-.54-1.54-.27Z"/>
      <path class="cls-1" d="m977.43,752.37l4.8-2.77c.35-.2.79-.15,1.09.12l5.77,6.56c.67.6,1.71,0,1.53-.88l-2.77-8.26c-.08-.39.1-.79.45-.99l4.83-2.77c.78-.45.53-1.63-.36-1.73l-5.54-.59c-.4-.04-.73-.34-.81-.73l-1.14-5.45c-.18-.88-1.39-1.01-1.75-.19l-2.28,5.08c-.16.37-.55.59-.95.54l-5.54-.59c-.89-.1-1.39,1.01-.72,1.61l4.13,3.73c.3.27.39.7.22,1.07l-2.27,5.07c-.37.82.53,1.63,1.31,1.18Z"/>
    </g>
    <rect class="cls-21" x="1058.18" y="709.52" width="132.37" height="132.37"/>
    <g>
      <path class="cls-1" d="m1158.09,736.63h-7.89s-.04,0-.06,0c-.69,0-1.38.25-1.9.77l-47.04,67.68v-65.8c0-1.47-1.19-2.65-2.65-2.65h-7.93c-1.47,0-2.65,1.19-2.65,2.65v74.12c0,1.47,1.19,2.65,2.65,2.65h7.93s.02,0,.03,0c.02,0,.04,0,.06,0,.03,0,.06,0,.09,0,.63-.03,1.25-.29,1.74-.77l.12-.18c.1-.12.19-.25.27-.39l46.68-67.15v65.82c0,1.48,1.2,2.67,2.67,2.67h7.89c1.48,0,2.67-1.2,2.67-2.67v-74.08c0-1.48-1.2-2.67-2.67-2.67Z"/>
      <path class="cls-1" d="m1147.06,807.92c-1.88.99-4.03,1.54-6.32,1.52-7.14-.08-12.98-5.9-13.08-13.04-.11-7.4,5.86-13.43,13.24-13.43,2.22,0,4.31.55,6.15,1.51.52.27,1.15.16,1.54-.27,0,0,.01-.01.02-.02.46-.51.45-1.28-.03-1.77-3.67-3.8-8.85-6.15-14.57-6.07-10.91.15-19.71,9.2-19.58,20.11.14,10.85,8.97,19.6,19.85,19.6,5.62,0,10.7-2.34,14.31-6.09.47-.49.47-1.25.01-1.76,0,0,0-.01-.01-.02-.39-.43-1.02-.54-1.54-.27Z"/>
      <path class="cls-1" d="m1109.8,752.37l4.8-2.77c.35-.2.79-.15,1.09.12l5.77,6.56c.67.6,1.71,0,1.53-.88l-2.77-8.26c-.08-.39.1-.79.45-.99l4.83-2.77c.78-.45.53-1.63-.36-1.73l-5.54-.59c-.4-.04-.73-.34-.81-.73l-1.14-5.45c-.18-.88-1.39-1.01-1.75-.19l-2.28,5.08c-.16.37-.55.59-.95.54l-5.54-.59c-.89-.1-1.39,1.01-.72,1.61l4.13,3.73c.3.27.39.7.22,1.07l-2.27,5.07c-.37.82.53,1.63,1.31,1.18Z"/>
    </g>
  </g>
  <g id="scritte">
    <rect class="cls-11" x="337.86" y="58.74" width="750.1" height="255.99"/>
    <text class="cls-5" transform="translate(1059.06 653.09)"><tspan x="0" y="0">2022</tspan></text>
    <text class="cls-7" transform="translate(409.54 162.13)"><tspan class="cls-19"><tspan class="cls-14" x="0" y="0">V</tspan><tspan x="49.42" y="0">iviana </tspan><tspan class="cls-10" x="278.39" y="0">d</tspan><tspan x="325.06" y="0">’</tspan><tspan class="cls-3" x="347.98" y="0">A</tspan><tspan class="cls-22" x="398.83" y="0">v</tspan><tspan x="437.56" y="0">an</tspan><tspan class="cls-16" x="525.31" y="0">z</tspan><tspan x="562.5" y="0">o </tspan></tspan><tspan class="cls-20"><tspan x="161.87" y="79.09">designer</tspan></tspan></text>
    <text class="cls-6" transform="translate(490.74 600.15)"><tspan x="0" y="0">a lo</tspan><tspan class="cls-2" x="82.52" y="0">g</tspan><tspan x="111.33" y="0">o </tspan><tspan class="cls-9" x="152.32" y="0">f</tspan><tspan x="167.67" y="0">or my pe</tspan><tspan class="cls-2" x="368.7" y="0">r</tspan><tspan x="388.52" y="0">sonal b</tspan><tspan class="cls-2" x="556.05" y="0">r</tspan><tspan x="575.88" y="0">and</tspan></text>
    <rect class="cls-8" x="99.67" y="153.59" width="425.2" height="425.2" rx="212.6" ry="212.6"/>
    <g>
      <path class="cls-1" d="m420.61,240.69h-25.34c-.06,0-.12,0-.19,0-2.21-.03-4.43.8-6.11,2.49l-151.11,217.39v-211.35c0-4.71-3.82-8.52-8.52-8.52h-25.47c-4.71,0-8.52,3.82-8.52,8.52v238.07c0,4.71,3.82,8.52,8.52,8.52h25.47s.06,0,.09,0c.06,0,.13,0,.19,0,.1,0,.19,0,.29-.01,2.03-.1,4.03-.92,5.58-2.47l.39-.56c.33-.39.62-.81.87-1.25l149.94-215.7v211.42c0,4.74,3.85,8.59,8.59,8.59h25.34c4.74,0,8.59-3.85,8.59-8.59v-237.94c0-4.74-3.85-8.59-8.59-8.59Z"/>
      <path class="cls-1" d="m385.17,469.67c-6.05,3.19-12.96,4.96-20.29,4.87-22.94-.27-41.68-18.95-42.01-41.89-.34-23.77,18.82-43.15,42.51-43.15,7.13,0,13.85,1.76,19.75,4.86,1.66.87,3.7.52,4.96-.87.02-.02.03-.04.05-.05,1.48-1.63,1.44-4.11-.09-5.7-11.79-12.22-28.41-19.75-46.79-19.5-35.05.48-63.32,29.54-62.88,64.59.44,34.85,28.82,62.96,63.77,62.96,18.05,0,34.35-7.5,45.96-19.56,1.51-1.56,1.49-4.03.04-5.64-.02-.02-.03-.04-.05-.05-1.25-1.38-3.29-1.75-4.93-.88Z"/>
      <path class="cls-1" d="m265.48,291.23l15.43-8.91c1.12-.65,2.53-.5,3.49.37l18.52,21.07c2.14,1.94,5.51,0,4.91-2.82l-8.89-26.53c-.27-1.26.31-2.55,1.43-3.2l15.51-8.91c2.5-1.44,1.7-5.24-1.17-5.54l-17.78-1.91c-1.28-.14-2.33-1.09-2.6-2.35l-3.68-17.5c-.59-2.82-4.45-3.24-5.63-.61l-7.31,16.32c-.53,1.18-1.75,1.88-3.04,1.74l-17.78-1.91c-2.87-.31-4.46,3.23-2.32,5.17l13.26,12c.96.87,1.25,2.25.72,3.43l-7.3,16.29c-1.18,2.64,1.71,5.24,4.21,3.8Z"/>
    </g>
    <rect class="cls-8" x="99.67" y="153.59" width="425.2" height="425.2" rx="212.6" ry="212.6"/>
    <g>
      <path class="cls-1" d="m420.61,240.69h-25.34c-.06,0-.12,0-.19,0-2.21-.03-4.43.8-6.11,2.49l-151.11,217.39v-211.35c0-4.71-3.82-8.52-8.52-8.52h-25.47c-4.71,0-8.52,3.82-8.52,8.52v238.07c0,4.71,3.82,8.52,8.52,8.52h25.47s.06,0,.09,0c.06,0,.13,0,.19,0,.1,0,.19,0,.29-.01,2.03-.1,4.03-.92,5.58-2.47l.39-.56c.33-.39.62-.81.87-1.25l149.94-215.7v211.42c0,4.74,3.85,8.59,8.59,8.59h25.34c4.74,0,8.59-3.85,8.59-8.59v-237.94c0-4.74-3.85-8.59-8.59-8.59Z"/>
      <path class="cls-1" d="m385.17,469.67c-6.05,3.19-12.96,4.96-20.29,4.87-22.94-.27-41.68-18.95-42.01-41.89-.34-23.77,18.82-43.15,42.51-43.15,7.13,0,13.85,1.76,19.75,4.86,1.66.87,3.7.52,4.96-.87.02-.02.03-.04.05-.05,1.48-1.63,1.44-4.11-.09-5.7-11.79-12.22-28.41-19.75-46.79-19.5-35.05.48-63.32,29.54-62.88,64.59.44,34.85,28.82,62.96,63.77,62.96,18.05,0,34.35-7.5,45.96-19.56,1.51-1.56,1.49-4.03.04-5.64-.02-.02-.03-.04-.05-.05-1.25-1.38-3.29-1.75-4.93-.88Z"/>
      <path class="cls-1" d="m265.48,291.23l15.43-8.91c1.12-.65,2.53-.5,3.49.37l18.52,21.07c2.14,1.94,5.51,0,4.91-2.82l-8.89-26.53c-.27-1.26.31-2.55,1.43-3.2l15.51-8.91c2.5-1.44,1.7-5.24-1.17-5.54l-17.78-1.91c-1.28-.14-2.33-1.09-2.6-2.35l-3.68-17.5c-.59-2.82-4.45-3.24-5.63-.61l-7.31,16.32c-.53,1.18-1.75,1.88-3.04,1.74l-17.78-1.91c-2.87-.31-4.46,3.23-2.32,5.17l13.26,12c.96.87,1.25,2.25.72,3.43l-7.3,16.29c-1.18,2.64,1.71,5.24,4.21,3.8Z"/>
    </g>
  </g>
</svg>