<?xml version="1.0" encoding="UTF-8"?>
<svg id="Livello_2" data-name="Livello 2" xmlns="http://www.w3.org/2000/svg" viewBox="0 0 1190.55 841.89">
  <defs>
    <style>
      .cls-1 {
        fill: #fff;
      }

      .cls-2 {
        fill: #1d1d1b;
      }
    </style>
  </defs>
  <g id="basi">
    <rect class="cls-1" width="1190.55" height="841.89"/>
  </g>
  <g id="scritte">
    <g>
      <path class="cls-2" d="m430.69,93.79h-30.25c-.07,0-.15,0-.22,0-2.64-.03-5.28.96-7.3,2.97l-180.39,259.51V103.97c0-5.62-4.56-10.18-10.18-10.18h-30.41c-5.62,0-10.18,4.56-10.18,10.18v284.2c0,5.62,4.56,10.18,10.18,10.18h30.41s.07,0,.1,0c.08,0,.15,0,.23,0,.11,0,.23,0,.34-.02,2.42-.12,4.81-1.1,6.66-2.95l.47-.67c.39-.46.74-.96,1.04-1.49l178.99-257.5v252.38c0,5.66,4.59,10.25,10.25,10.25h30.25c5.66,0,10.25-4.59,10.25-10.25V104.05c0-5.66-4.59-10.25-10.25-10.25Z"/>
      <path class="cls-2" d="m388.39,367.15c-7.22,3.8-15.47,5.92-24.22,5.82-27.38-.32-49.75-22.63-50.15-50.01-.41-28.38,22.47-51.51,50.75-51.51,8.51,0,16.53,2.1,23.58,5.8,1.98,1.04,4.42.63,5.92-1.03.02-.02.04-.04.06-.06,1.77-1.95,1.72-4.91-.11-6.8-14.07-14.59-33.92-23.57-55.86-23.27-41.85.57-75.59,35.26-75.07,77.11.52,41.6,34.41,75.16,76.13,75.16,21.55,0,41.01-8.96,54.86-23.35,1.8-1.87,1.78-4.81.04-6.73-.02-.02-.04-.04-.06-.06-1.49-1.65-3.92-2.09-5.89-1.05Z"/>
      <path class="cls-2" d="m245.52,154.13l18.42-10.64c1.34-.77,3.02-.59,4.16.44l22.11,25.15c2.55,2.31,6.57,0,5.86-3.37l-10.61-31.67c-.32-1.51.37-3.05,1.71-3.81l18.51-10.63c2.99-1.72,2.03-6.25-1.39-6.62l-21.23-2.28c-1.53-.16-2.78-1.3-3.1-2.8l-4.39-20.89c-.71-3.37-5.32-3.87-6.72-.72l-8.73,19.48c-.63,1.41-2.09,2.25-3.62,2.08l-21.23-2.28c-3.42-.37-5.32,3.86-2.76,6.17l15.83,14.32c1.14,1.03,1.49,2.68.86,4.09l-8.71,19.44c-1.41,3.15,2.04,6.26,5.02,4.53Z"/>
    </g>
    <g>
      <path class="cls-2" d="m496.04,286.06l11.59,34.32,11.63-34.57c.61-1.82,1.06-3.08,1.36-3.79.3-.71.8-1.35,1.5-1.92.7-.57,1.65-.86,2.86-.86.88,0,1.71.22,2.46.66.76.44,1.35,1.03,1.78,1.76s.65,1.47.65,2.22c0,.51-.07,1.06-.21,1.66s-.31,1.18-.52,1.75c-.21.57-.42,1.16-.63,1.76l-12.4,33.45c-.44,1.28-.88,2.5-1.33,3.65s-.95,2.16-1.54,3.04-1.36,1.59-2.32,2.15c-.97.56-2.15.84-3.54.84s-2.58-.27-3.54-.82-1.75-1.27-2.34-2.16c-.59-.9-1.11-1.91-1.55-3.06-.44-1.14-.88-2.35-1.33-3.63l-12.19-33.17c-.21-.61-.42-1.2-.65-1.78-.22-.58-.41-1.21-.56-1.89-.15-.68-.23-1.24-.23-1.71,0-1.19.48-2.27,1.43-3.25s2.15-1.47,3.6-1.47c1.77,0,3.02.54,3.75,1.62.73,1.08,1.48,2.81,2.25,5.19Z"/>
      <path class="cls-2" d="m540.88,288.99c-1.33,0-2.46-.41-3.4-1.22-.94-.81-1.41-1.97-1.41-3.46,0-1.35.48-2.46,1.45-3.33s2.09-1.31,3.37-1.31,2.33.4,3.28,1.19c.95.79,1.43,1.94,1.43,3.46s-.47,2.61-1.4,3.44c-.93.83-2.04,1.24-3.32,1.24Zm4.71,9.85v27.55c0,1.91-.45,3.35-1.36,4.33s-2.06,1.47-3.46,1.47-2.53-.5-3.4-1.5c-.87-1-1.31-2.43-1.31-4.29v-27.27c0-1.89.44-3.3,1.31-4.26.87-.95,2.01-1.43,3.4-1.43s2.55.48,3.46,1.43c.91.96,1.36,2.28,1.36,3.98Z"/>
      <path class="cls-2" d="m562.18,299.36l7.72,21.65,8.31-22.59c.65-1.82,1.29-3.1,1.92-3.86.63-.76,1.58-1.13,2.86-1.13,1.21,0,2.24.41,3.09,1.22.85.82,1.27,1.76,1.27,2.83,0,.42-.08.91-.23,1.47s-.33,1.08-.52,1.57-.42,1.05-.68,1.68l-9.15,22.7c-.26.65-.59,1.48-1,2.48-.41,1-.86,1.86-1.36,2.57-.5.71-1.12,1.26-1.85,1.66s-1.62.59-2.67.59c-1.35,0-2.43-.31-3.23-.93s-1.4-1.29-1.78-2.03-1.03-2.18-1.94-4.35l-9.08-22.45c-.21-.56-.42-1.12-.65-1.68s-.41-1.13-.56-1.71c-.15-.58-.23-1.08-.23-1.5,0-.65.2-1.3.59-1.94.4-.64.94-1.16,1.64-1.57.7-.41,1.45-.61,2.27-.61,1.58,0,2.67.45,3.26,1.36s1.25,2.43,1.97,4.57Z"/>
      <path class="cls-2" d="m599.02,288.99c-1.33,0-2.46-.41-3.4-1.22-.94-.81-1.41-1.97-1.41-3.46,0-1.35.48-2.46,1.45-3.33s2.09-1.31,3.37-1.31,2.33.4,3.28,1.19c.95.79,1.43,1.94,1.43,3.46s-.47,2.61-1.4,3.44c-.93.83-2.04,1.24-3.32,1.24Zm4.71,9.85v27.55c0,1.91-.45,3.35-1.36,4.33s-2.06,1.47-3.46,1.47-2.53-.5-3.4-1.5c-.87-1-1.31-2.43-1.31-4.29v-27.27c0-1.89.44-3.3,1.31-4.26.87-.95,2.01-1.43,3.4-1.43s2.55.48,3.46,1.43c.91.96,1.36,2.28,1.36,3.98Z"/>
      <path class="cls-2" d="m637.67,326.81c-2.3,1.79-4.53,3.14-6.69,4.03-2.15.9-4.57,1.34-7.25,1.34-2.44,0-4.59-.48-6.44-1.45s-3.28-2.27-4.28-3.93c-1-1.65-1.5-3.44-1.5-5.38,0-2.61.83-4.83,2.48-6.67,1.65-1.84,3.92-3.07,6.81-3.7.61-.14,2.11-.45,4.5-.94s4.45-.94,6.16-1.34c1.71-.41,3.57-.9,5.57-1.48-.12-2.51-.62-4.36-1.52-5.53-.9-1.17-2.75-1.76-5.57-1.76-2.42,0-4.24.34-5.46,1.01-1.22.68-2.27,1.69-3.14,3.04-.87,1.35-1.49,2.24-1.85,2.67-.36.43-1.13.65-2.32.65-1.07,0-2-.34-2.78-1.03-.78-.69-1.17-1.57-1.17-2.64,0-1.68.59-3.3,1.78-4.89,1.19-1.58,3.04-2.89,5.55-3.91,2.51-1.02,5.65-1.54,9.39-1.54,4.19,0,7.48.49,9.88,1.48,2.4.99,4.09,2.55,5.08,4.7.99,2.14,1.48,4.98,1.48,8.52,0,2.23,0,4.13-.02,5.69-.01,1.56-.03,3.29-.05,5.2,0,1.79.3,3.66.89,5.6.59,1.94.89,3.19.89,3.75,0,.98-.46,1.87-1.38,2.67s-1.96,1.2-3.13,1.2c-.98,0-1.94-.46-2.9-1.38s-1.97-2.25-3.04-4Zm-.63-13.79c-1.4.51-3.43,1.05-6.09,1.62-2.67.57-4.51.99-5.53,1.26-1.02.27-2,.79-2.93,1.57-.93.78-1.4,1.87-1.4,3.26s.55,2.67,1.64,3.68c1.09,1.01,2.53,1.52,4.29,1.52,1.89,0,3.63-.41,5.22-1.24,1.59-.83,2.76-1.89,3.51-3.19.86-1.44,1.29-3.82,1.29-7.12v-1.36Z"/>
      <path class="cls-2" d="m664.73,298.7v1.15c1.68-2.21,3.51-3.84,5.5-4.87,1.99-1.04,4.28-1.55,6.86-1.55s4.76.55,6.74,1.64c1.98,1.09,3.46,2.64,4.43,4.64.63,1.16,1.04,2.42,1.22,3.77.19,1.35.28,3.07.28,5.17v17.74c0,1.91-.44,3.35-1.31,4.33s-2.01,1.47-3.4,1.47-2.57-.5-3.46-1.5-1.33-2.43-1.33-4.29v-15.89c0-3.14-.44-5.55-1.31-7.21-.87-1.66-2.61-2.5-5.22-2.5-1.7,0-3.25.51-4.64,1.52-1.4,1.01-2.42,2.4-3.07,4.17-.47,1.42-.7,4.07-.7,7.96v11.94c0,1.93-.45,3.38-1.34,4.35-.9.97-2.05,1.45-3.47,1.45s-2.5-.5-3.39-1.5c-.88-1-1.33-2.43-1.33-4.29v-27.55c0-1.82.4-3.17,1.19-4.07.79-.9,1.87-1.34,3.25-1.34.84,0,1.59.2,2.27.59.68.4,1.22.99,1.62,1.78.41.79.61,1.76.61,2.9Z"/>
      <path class="cls-2" d="m723.36,326.81c-2.3,1.79-4.53,3.14-6.69,4.03-2.15.9-4.57,1.34-7.25,1.34-2.44,0-4.59-.48-6.44-1.45-1.85-.97-3.28-2.27-4.28-3.93-1-1.65-1.5-3.44-1.5-5.38,0-2.61.83-4.83,2.48-6.67,1.65-1.84,3.92-3.07,6.81-3.7.61-.14,2.11-.45,4.5-.94s4.45-.94,6.16-1.34c1.71-.41,3.57-.9,5.57-1.48-.12-2.51-.62-4.36-1.52-5.53-.9-1.17-2.75-1.76-5.57-1.76-2.42,0-4.24.34-5.46,1.01-1.22.68-2.27,1.69-3.14,3.04-.87,1.35-1.49,2.24-1.85,2.67-.36.43-1.13.65-2.32.65-1.07,0-2-.34-2.78-1.03-.78-.69-1.17-1.57-1.17-2.64,0-1.68.59-3.3,1.78-4.89,1.19-1.58,3.04-2.89,5.55-3.91,2.51-1.02,5.65-1.54,9.39-1.54,4.19,0,7.48.49,9.88,1.48,2.4.99,4.09,2.55,5.08,4.7.99,2.14,1.48,4.98,1.48,8.52,0,2.23,0,4.13-.02,5.69-.01,1.56-.03,3.29-.05,5.2,0,1.79.3,3.66.89,5.6.59,1.94.89,3.19.89,3.75,0,.98-.46,1.87-1.38,2.67s-1.96,1.2-3.13,1.2c-.98,0-1.94-.46-2.9-1.38s-1.97-2.25-3.04-4Zm-.63-13.79c-1.4.51-3.43,1.05-6.09,1.62-2.67.57-4.51.99-5.53,1.26-1.02.27-2,.79-2.93,1.57-.93.78-1.4,1.87-1.4,3.26s.55,2.67,1.64,3.68c1.09,1.01,2.53,1.52,4.29,1.52,1.89,0,3.63-.41,5.22-1.24,1.59-.83,2.76-1.89,3.51-3.19.86-1.44,1.29-3.82,1.29-7.12v-1.36Z"/>
      <path class="cls-2" d="m785.76,326.74v-.94c-1.28,1.47-2.54,2.66-3.79,3.58-1.25.92-2.6,1.62-4.05,2.1s-3.04.72-4.77.72c-2.28,0-4.39-.48-6.34-1.45-1.94-.97-3.63-2.34-5.05-4.14-1.42-1.79-2.5-3.9-3.23-6.32-.73-2.42-1.1-5.04-1.1-7.86,0-5.96,1.45-10.6,4.36-13.93,2.91-3.33,6.74-4.99,11.49-4.99,2.75,0,5.06.47,6.95,1.41,1.89.94,3.72,2.39,5.52,4.35v-14.07c0-1.96.39-3.43,1.17-4.43.78-1,1.89-1.5,3.33-1.5s2.55.46,3.33,1.38c.78.92,1.17,2.28,1.17,4.07v42.04c0,1.82-.42,3.18-1.26,4.09s-1.92,1.36-3.25,1.36-2.38-.47-3.23-1.41c-.85-.94-1.27-2.29-1.27-4.03Zm-18.75-14c0,2.58.4,4.78,1.2,6.6.8,1.82,1.9,3.18,3.3,4.1,1.4.92,2.92,1.38,4.57,1.38s3.21-.44,4.59-1.31c1.39-.87,2.49-2.21,3.32-4.02.83-1.8,1.24-4.06,1.24-6.76,0-2.54-.41-4.72-1.24-6.55-.83-1.83-1.94-3.22-3.35-4.19-1.41-.97-2.95-1.45-4.63-1.45s-3.31.49-4.68,1.48c-1.37.99-2.44,2.41-3.19,4.26s-1.13,4-1.13,6.44Z"/>
      <path class="cls-2" d="m811.67,289.83h-.52c-1.3,0-2.48-.53-3.54-1.59-1.06-1.06-1.59-2.31-1.59-3.75s.53-2.74,1.59-3.74c1.06-1,2.37-1.5,3.93-1.5,1.07,0,2.07.31,3,.93.93.62,1.65,1.51,2.16,2.69.51,1.18.77,2.61.77,4.31,0,2.3-.49,4.46-1.47,6.48-.98,2.01-2.17,3.61-3.58,4.78-1.41,1.18-2.68,1.76-3.82,1.76-.72,0-1.31-.23-1.76-.68s-.68-1.01-.68-1.66c0-1.05.48-1.82,1.43-2.3,1.23-.72,2.2-1.51,2.9-2.37.7-.86,1.09-1.98,1.19-3.35Z"/>
      <path class="cls-2" d="m861,325.52l-2.44-6.42h-20.81l-2.44,6.56c-.95,2.56-1.77,4.29-2.44,5.19s-1.78,1.34-3.32,1.34c-1.3,0-2.46-.48-3.46-1.43-1-.95-1.5-2.04-1.5-3.25,0-.7.12-1.42.35-2.16.23-.74.62-1.78,1.15-3.11l13.09-33.24c.37-.95.82-2.1,1.34-3.44.52-1.34,1.08-2.45,1.68-3.33.59-.88,1.37-1.6,2.34-2.15.97-.55,2.16-.82,3.58-.82s2.65.27,3.61.82c.97.55,1.75,1.25,2.34,2.11.59.86,1.09,1.79,1.5,2.78.41.99.93,2.31,1.55,3.96l13.37,33.03c1.05,2.51,1.57,4.34,1.57,5.48s-.49,2.28-1.48,3.26-2.18,1.48-3.58,1.48c-.81,0-1.51-.15-2.1-.44-.58-.29-1.07-.69-1.47-1.19-.4-.5-.82-1.27-1.27-2.3-.45-1.04-.84-1.95-1.17-2.74Zm-20.53-14.21h15.29l-7.72-21.13-7.58,21.13Z"/>
      <path class="cls-2" d="m883.98,299.36l7.72,21.65,8.31-22.59c.65-1.82,1.29-3.1,1.92-3.86.63-.76,1.58-1.13,2.86-1.13,1.21,0,2.24.41,3.09,1.22.85.82,1.27,1.76,1.27,2.83,0,.42-.08.91-.23,1.47s-.33,1.08-.52,1.57-.42,1.05-.68,1.68l-9.15,22.7c-.26.65-.59,1.48-1,2.48-.41,1-.86,1.86-1.36,2.57-.5.71-1.12,1.26-1.85,1.66s-1.62.59-2.67.59c-1.35,0-2.43-.31-3.23-.93s-1.4-1.29-1.78-2.03-1.03-2.18-1.94-4.35l-9.08-22.45c-.21-.56-.42-1.12-.65-1.68s-.41-1.13-.56-1.71c-.15-.58-.23-1.08-.23-1.5,0-.65.2-1.3.59-1.94.4-.64.94-1.16,1.64-1.57.7-.41,1.45-.61,2.27-.61,1.58,0,2.67.45,3.26,1.36.59.91,1.25,2.43,1.97,4.57Z"/>
      <path class="cls-2" d="m939.15,326.81c-2.3,1.79-4.53,3.14-6.69,4.03-2.15.9-4.57,1.34-7.25,1.34-2.44,0-4.59-.48-6.44-1.45-1.85-.97-3.28-2.27-4.28-3.93-1-1.65-1.5-3.44-1.5-5.38,0-2.61.83-4.83,2.48-6.67,1.65-1.84,3.92-3.07,6.81-3.7.61-.14,2.11-.45,4.5-.94s4.45-.94,6.16-1.34c1.71-.41,3.57-.9,5.57-1.48-.12-2.51-.62-4.36-1.52-5.53-.9-1.17-2.75-1.76-5.57-1.76-2.42,0-4.24.34-5.46,1.01-1.22.68-2.27,1.69-3.14,3.04-.87,1.35-1.49,2.24-1.85,2.67-.36.43-1.13.65-2.32.65-1.07,0-2-.34-2.78-1.03-.78-.69-1.17-1.57-1.17-2.64,0-1.68.59-3.3,1.78-4.89,1.19-1.58,3.04-2.89,5.55-3.91,2.51-1.02,5.65-1.54,9.39-1.54,4.19,0,7.48.49,9.88,1.48,2.4.99,4.09,2.55,5.08,4.7.99,2.14,1.48,4.98,1.48,8.52,0,2.23,0,4.13-.02,5.69-.01,1.56-.03,3.29-.05,5.2,0,1.79.3,3.66.89,5.6.59,1.94.89,3.19.89,3.75,0,.98-.46,1.87-1.38,2.67s-1.96,1.2-3.13,1.2c-.98,0-1.94-.46-2.9-1.38-.95-.92-1.97-2.25-3.04-4Zm-.63-13.79c-1.4.51-3.43,1.05-6.09,1.62-2.67.57-4.51.99-5.53,1.26-1.02.27-2,.79-2.93,1.57-.93.78-1.4,1.87-1.4,3.26s.55,2.67,1.64,3.68c1.09,1.01,2.53,1.52,4.29,1.52,1.89,0,3.63-.41,5.22-1.24,1.59-.83,2.76-1.89,3.51-3.19.86-1.44,1.29-3.82,1.29-7.12v-1.36Z"/>
      <path class="cls-2" d="m966.21,298.7v1.15c1.68-2.21,3.51-3.84,5.5-4.87,1.99-1.04,4.28-1.55,6.86-1.55s4.76.55,6.74,1.64c1.98,1.09,3.46,2.64,4.43,4.64.63,1.16,1.04,2.42,1.22,3.77.19,1.35.28,3.07.28,5.17v17.74c0,1.91-.44,3.35-1.31,4.33s-2.01,1.47-3.4,1.47-2.57-.5-3.46-1.5-1.33-2.43-1.33-4.29v-15.89c0-3.14-.44-5.55-1.31-7.21-.87-1.66-2.61-2.5-5.22-2.5-1.7,0-3.25.51-4.64,1.52-1.4,1.01-2.42,2.4-3.07,4.17-.47,1.42-.7,4.07-.7,7.96v11.94c0,1.93-.45,3.38-1.34,4.35s-2.05,1.45-3.47,1.45-2.5-.5-3.39-1.5c-.88-1-1.33-2.43-1.33-4.29v-27.55c0-1.82.4-3.17,1.19-4.07.79-.9,1.87-1.34,3.25-1.34.84,0,1.59.2,2.27.59.68.4,1.22.99,1.62,1.78.41.79.61,1.76.61,2.9Z"/>
      <path class="cls-2" d="m1026.66,304.36l-17.46,19.52h18.68c1.51,0,2.65.35,3.42,1.06.77.71,1.15,1.62,1.15,2.74s-.38,1.94-1.13,2.62c-.76.68-1.9,1.01-3.44,1.01h-25.84c-1.82,0-3.17-.4-4.07-1.19-.9-.79-1.34-1.87-1.34-3.25,0-.81.31-1.64.94-2.46.63-.83,1.93-2.34,3.91-4.56,2.1-2.33,4-4.43,5.71-6.32s3.3-3.65,4.77-5.29,2.68-3.03,3.65-4.17c.97-1.14,1.74-2.12,2.32-2.93h-14.18c-1.96,0-3.43-.17-4.43-.52s-1.5-1.27-1.5-2.76c0-1.09.38-1.97,1.13-2.62.76-.65,1.83-.98,3.23-.98h21.89c2.03,0,3.58.3,4.66.89s1.62,1.66,1.62,3.19c0,.51-.1,1.04-.31,1.59-.21.55-.44,1-.7,1.34s-.61.77-1.05,1.27c-.44.5-.99,1.1-1.64,1.8Z"/>
      <path class="cls-2" d="m1072.75,312.81c0,2.84-.44,5.46-1.33,7.86-.88,2.4-2.16,4.46-3.84,6.18-1.68,1.72-3.68,3.04-6.01,3.96-2.33.92-4.95,1.38-7.86,1.38s-5.48-.47-7.79-1.4c-2.3-.93-4.3-2.26-5.99-4-1.69-1.73-2.97-3.78-3.84-6.15-.87-2.36-1.31-4.98-1.31-7.84s.44-5.53,1.33-7.93c.88-2.4,2.15-4.45,3.81-6.15,1.65-1.7,3.65-3.01,6.01-3.93,2.35-.92,4.95-1.38,7.79-1.38s5.51.47,7.86,1.4c2.35.93,4.36,2.26,6.04,3.98,1.68,1.72,2.95,3.77,3.82,6.15.87,2.37,1.31,4.99,1.31,7.86Zm-9.57,0c0-3.89-.86-6.91-2.57-9.08s-4.01-3.25-6.9-3.25c-1.86,0-3.5.48-4.92,1.45-1.42.97-2.51,2.39-3.28,4.28-.77,1.89-1.15,4.09-1.15,6.6s.38,4.67,1.13,6.53c.76,1.86,1.84,3.29,3.25,4.28,1.41.99,3.07,1.48,4.98,1.48,2.89,0,5.19-1.09,6.9-3.26,1.71-2.18,2.57-5.19,2.57-9.03Z"/>
      <path class="cls-2" d="m493.27,354.4h9.01c2.34,0,4.35.22,6.03.65,1.68.43,3.2,1.25,4.56,2.44,3.55,3.04,5.33,7.67,5.33,13.87,0,2.05-.18,3.92-.54,5.61-.36,1.69-.91,3.22-1.65,4.57-.74,1.36-1.7,2.57-2.86,3.64-.92.82-1.92,1.48-3,1.98-1.09.5-2.25.85-3.5,1.05-1.25.2-2.66.3-4.23.3h-9.01c-1.26,0-2.2-.19-2.84-.57-.64-.38-1.05-.92-1.25-1.61-.19-.69-.29-1.59-.29-2.69v-25.02c0-1.49.33-2.57,1-3.24.67-.67,1.75-1,3.24-1Zm2.68,5.47v23.16h5.24c1.15,0,2.05-.03,2.7-.09.65-.06,1.33-.22,2.03-.47.7-.25,1.3-.6,1.82-1.05,2.31-1.96,3.47-5.32,3.47-10.1,0-3.37-.51-5.89-1.52-7.57s-2.27-2.74-3.76-3.2c-1.49-.46-3.29-.69-5.4-.69h-4.56Z"/>
      <path class="cls-2" d="m541.57,377.74h-12.43c.02,1.44.31,2.72.87,3.82.57,1.1,1.32,1.93,2.26,2.49s1.98.84,3.11.84c.76,0,1.45-.09,2.08-.27.63-.18,1.24-.46,1.83-.84.59-.38,1.13-.79,1.63-1.22.5-.43,1.14-1.02,1.93-1.77.33-.28.79-.42,1.4-.42.65,0,1.18.18,1.58.54.4.36.61.86.61,1.51,0,.57-.22,1.25-.68,2.01s-1.13,1.51-2.04,2.21c-.91.71-2.05,1.29-3.42,1.76-1.37.47-2.95.7-4.74.7-4.08,0-7.25-1.16-9.52-3.49-2.27-2.33-3.4-5.49-3.4-9.47,0-1.88.28-3.62.84-5.23s1.37-2.98,2.44-4.13c1.07-1.15,2.39-2.03,3.96-2.64,1.57-.61,3.31-.92,5.21-.92,2.48,0,4.61.52,6.39,1.57,1.78,1.05,3.11,2.4,3.99,4.06.88,1.66,1.33,3.35,1.33,5.07,0,1.6-.46,2.63-1.37,3.11-.92.47-2.2.71-3.86.71Zm-12.43-3.61h11.52c-.15-2.17-.74-3.8-1.76-4.88-1.02-1.08-2.35-1.62-4.02-1.62s-2.88.55-3.9,1.64-1.63,2.71-1.85,4.85Z"/>
      <path class="cls-2" d="m572.63,380.79c0,1.75-.43,3.26-1.28,4.5-.85,1.25-2.11,2.2-3.78,2.84s-3.7.97-6.09.97-4.24-.35-5.87-1.05-2.83-1.57-3.61-2.62-1.16-2.1-1.16-3.15c0-.7.25-1.3.74-1.79.5-.5,1.13-.74,1.89-.74.67,0,1.18.16,1.54.49s.7.78,1.02,1.37c.65,1.13,1.43,1.98,2.34,2.54.91.56,2.15.84,3.71.84,1.27,0,2.32-.28,3.13-.85.81-.57,1.22-1.21,1.22-1.94,0-1.12-.42-1.93-1.27-2.44s-2.24-1-4.18-1.47c-2.19-.54-3.97-1.11-5.34-1.71-1.37-.6-2.47-1.39-3.29-2.36s-1.23-2.18-1.23-3.61c0-1.27.38-2.48,1.14-3.61.76-1.13,1.88-2.04,3.36-2.71,1.48-.68,3.27-1.01,5.37-1.01,1.64,0,3.12.17,4.43.51,1.31.34,2.41.8,3.28,1.37.88.57,1.54,1.21,2,1.91s.69,1.38.69,2.05c0,.73-.24,1.33-.73,1.79s-1.18.7-2.08.7c-.65,0-1.21-.19-1.66-.56s-.98-.93-1.57-1.68c-.48-.62-1.05-1.12-1.7-1.49s-1.54-.56-2.65-.56-2.1.24-2.86.73-1.14,1.1-1.14,1.83c0,.67.28,1.21.84,1.64.56.43,1.31.78,2.26,1.06s2.25.62,3.91,1.02c1.97.48,3.58,1.06,4.83,1.72,1.25.67,2.2,1.45,2.84,2.36s.97,1.94.97,3.11Z"/>
      <path class="cls-2" d="m581.22,360.31c-.88,0-1.64-.27-2.27-.81-.63-.54-.94-1.31-.94-2.3,0-.9.32-1.64.97-2.22s1.39-.87,2.25-.87,1.55.26,2.19.79c.64.53.95,1.3.95,2.3s-.31,1.74-.93,2.29c-.62.55-1.36.83-2.21.83Zm3.14,6.56v18.37c0,1.27-.3,2.23-.91,2.89s-1.37.98-2.3.98-1.69-.33-2.27-1-.87-1.62-.87-2.86v-18.18c0-1.26.29-2.2.87-2.84.58-.64,1.34-.95,2.27-.95s1.7.32,2.3.95c.61.64.91,1.52.91,2.65Z"/>
      <path class="cls-2" d="m614.3,367.92v18.46c0,2.11-.22,3.93-.68,5.45-.45,1.52-1.17,2.78-2.16,3.77-.99.99-2.29,1.73-3.9,2.21-1.61.48-3.6.72-5.99.72-2.19,0-4.14-.31-5.87-.92-1.72-.61-3.05-1.4-3.98-2.37-.93-.97-1.4-1.97-1.4-2.99,0-.78.26-1.41.79-1.9s1.16-.73,1.91-.73c.93,0,1.75.41,2.44,1.23.34.42.69.84,1.06,1.27.36.43.77.79,1.21,1.09s.97.53,1.59.68c.62.15,1.34.22,2.14.22,1.64,0,2.92-.23,3.83-.69.91-.46,1.54-1.1,1.91-1.92.36-.82.58-1.7.64-2.64s.11-2.45.14-4.53c-.98,1.37-2.11,2.41-3.39,3.12-1.28.71-2.81,1.07-4.57,1.07-2.13,0-3.98-.54-5.58-1.63-1.59-1.09-2.81-2.61-3.67-4.56s-1.28-4.21-1.28-6.77c0-1.91.26-3.63.78-5.17.52-1.54,1.26-2.83,2.22-3.89.96-1.06,2.07-1.85,3.33-2.39s2.64-.8,4.14-.8c1.8,0,3.36.35,4.68,1.04,1.32.69,2.55,1.77,3.68,3.25v-.86c0-1.1.27-1.96.81-2.56s1.24-.91,2.1-.91c1.23,0,2.04.4,2.44,1.2.4.8.61,1.95.61,3.46Zm-18.41,8.05c0,2.58.56,4.52,1.69,5.84,1.13,1.32,2.58,1.98,4.36,1.98,1.06,0,2.05-.28,2.99-.85.94-.57,1.7-1.42,2.29-2.56s.88-2.53.88-4.16c0-2.59-.57-4.61-1.71-6.05-1.14-1.44-2.64-2.16-4.5-2.16s-3.27.69-4.36,2.07c-1.09,1.38-1.64,3.34-1.64,5.89Z"/>
      <path class="cls-2" d="m626.49,366.78v.77c1.12-1.47,2.34-2.56,3.67-3.25,1.33-.69,2.85-1.04,4.57-1.04s3.17.36,4.49,1.09c1.32.73,2.3,1.76,2.96,3.1.42.78.69,1.61.81,2.51.12.9.19,2.05.19,3.45v11.83c0,1.27-.29,2.23-.87,2.89s-1.34.98-2.27.98-1.71-.33-2.3-1-.88-1.62-.88-2.86v-10.59c0-2.1-.29-3.7-.87-4.81-.58-1.11-1.74-1.66-3.48-1.66-1.13,0-2.16.34-3.1,1.01s-1.61,1.6-2.05,2.78c-.31.95-.47,2.72-.47,5.31v7.96c0,1.29-.3,2.25-.9,2.9s-1.37.97-2.32.97-1.67-.33-2.26-1-.88-1.62-.88-2.86v-18.37c0-1.21.26-2.11.79-2.71.53-.6,1.25-.9,2.16-.9.56,0,1.06.13,1.51.4.45.26.81.66,1.08,1.19.27.53.41,1.17.41,1.93Z"/>
      <path class="cls-2" d="m665.53,361.63c0-1.44.38-2.76,1.13-3.95s1.86-2.13,3.32-2.83c1.46-.7,3.17-1.05,5.14-1.05s3.65.36,5.07,1.09c1.43.73,2.49,1.68,3.2,2.86.71,1.18,1.06,2.41,1.06,3.68,0,1.74-.57,3.25-1.72,4.54-1.15,1.29-2.84,2.6-5.07,3.93.78.92,1.5,1.78,2.16,2.58.67.81,1.31,1.56,1.93,2.26.62.7,1.19,1.3,1.7,1.79.23-.43.59-1.25,1.08-2.44.49-1.19.95-2.06,1.37-2.58.43-.53,1.03-.79,1.8-.79.73,0,1.37.26,1.93.78.56.52.84,1.15.84,1.9,0,.68-.24,1.65-.72,2.9-.48,1.25-1.18,2.63-2.1,4.16.57.5,1.49,1.25,2.74,2.26,1.25,1.01,2.02,1.7,2.3,2.06.29.36.43.85.43,1.45,0,.81-.29,1.49-.87,2.04s-1.23.83-1.94.83-1.44-.23-2.12-.7-2.13-1.61-4.35-3.42c-1.01.95-2.05,1.72-3.13,2.33s-2.23,1.06-3.47,1.35c-1.23.29-2.61.44-4.13.44-1.94,0-3.68-.28-5.23-.85s-2.83-1.33-3.85-2.29c-1.02-.96-1.78-2.03-2.28-3.2-.5-1.17-.74-2.36-.74-3.57s.19-2.23.56-3.2c.37-.97.9-1.85,1.57-2.63.68-.78,1.5-1.53,2.49-2.23.99-.71,2.13-1.39,3.43-2.06-1.16-1.46-2.05-2.76-2.64-3.9-.6-1.14-.9-2.32-.9-3.53Zm6.59,11.15c-1.58.92-2.77,1.83-3.55,2.75-.78.92-1.18,2-1.18,3.26,0,.71.14,1.4.43,2.05s.71,1.26,1.26,1.82,1.19.99,1.92,1.28c.73.3,1.5.44,2.3.44s1.56-.12,2.3-.37c.74-.25,1.45-.6,2.12-1.06.67-.46,1.36-1.03,2.07-1.71-1.38-1.27-2.62-2.53-3.72-3.78-1.1-1.25-2.42-2.81-3.96-4.67Zm2.37-6.38c1.58-1.01,2.73-1.86,3.43-2.55.71-.69,1.06-1.52,1.06-2.5s-.35-1.77-1.06-2.42-1.59-.98-2.67-.98-1.97.33-2.69,1c-.72.67-1.08,1.45-1.08,2.35,0,.47.14.97.41,1.5s.61,1.07,1.01,1.59c.4.53.93,1.2,1.58,2Z"/>
      <path class="cls-2" d="m735.95,378.28c0,2.06-.53,3.92-1.59,5.56-1.06,1.65-2.62,2.93-4.67,3.86-2.05.93-4.48,1.4-7.29,1.4-3.37,0-6.15-.64-8.33-1.91-1.55-.92-2.81-2.14-3.78-3.67-.97-1.53-1.45-3.01-1.45-4.46,0-.84.29-1.56.87-2.15.58-.6,1.32-.9,2.22-.9.73,0,1.35.23,1.85.7s.93,1.16,1.29,2.07c.43,1.09.9,1.99,1.41,2.72.5.73,1.21,1.33,2.13,1.8.92.47,2.12.71,3.61.71,2.05,0,3.71-.48,4.99-1.43s1.92-2.15,1.92-3.57c0-1.13-.35-2.05-1.04-2.76-.69-.71-1.58-1.25-2.68-1.62s-2.56-.77-4.39-1.19c-2.45-.57-4.5-1.25-6.16-2.01s-2.96-1.82-3.93-3.14c-.97-1.33-1.45-2.98-1.45-4.95s.51-3.55,1.54-5c1.02-1.46,2.51-2.58,4.45-3.36,1.94-.78,4.22-1.18,6.84-1.18,2.1,0,3.91.26,5.44.78,1.53.52,2.8,1.21,3.81,2.07,1.01.86,1.75,1.77,2.21,2.71.47.95.7,1.87.7,2.77,0,.82-.29,1.56-.87,2.22-.58.66-1.31.99-2.18.99-.79,0-1.39-.2-1.8-.59s-.86-1.04-1.34-1.94c-.62-1.29-1.37-2.29-2.23-3.01s-2.27-1.08-4.19-1.08c-1.78,0-3.22.39-4.32,1.18-1.09.78-1.64,1.73-1.64,2.83,0,.68.19,1.27.56,1.77.37.5.88.92,1.54,1.28.65.36,1.31.64,1.98.84.67.2,1.77.5,3.31.88,1.92.45,3.67.95,5.23,1.49,1.56.54,2.89,1.2,3.98,1.98,1.09.78,1.95,1.76,2.56,2.94s.92,2.64.92,4.36Z"/>
      <path class="cls-2" d="m765.16,376.18c0,1.89-.29,3.64-.88,5.24-.59,1.6-1.44,2.97-2.56,4.12-1.12,1.15-2.45,2.03-4,2.64-1.55.61-3.3.92-5.24.92s-3.65-.31-5.19-.93c-1.54-.62-2.87-1.51-3.99-2.67-1.13-1.16-1.98-2.52-2.56-4.1-.58-1.57-.87-3.32-.87-5.23s.29-3.69.88-5.28c.59-1.6,1.44-2.96,2.54-4.1,1.1-1.13,2.44-2.01,4-2.62,1.57-.61,3.3-.92,5.19-.92s3.67.31,5.24.93c1.57.62,2.91,1.51,4.03,2.65,1.12,1.15,1.97,2.51,2.55,4.1.58,1.58.87,3.33.87,5.24Zm-6.38,0c0-2.59-.57-4.61-1.71-6.05s-2.67-2.16-4.6-2.16c-1.24,0-2.34.32-3.28.97-.95.64-1.68,1.59-2.19,2.85-.51,1.26-.77,2.72-.77,4.4s.25,3.11.76,4.35c.5,1.24,1.23,2.19,2.16,2.85.94.66,2.05.99,3.32.99,1.92,0,3.46-.73,4.6-2.18,1.14-1.45,1.71-3.46,1.71-6.02Z"/>
      <path class="cls-2" d="m792.96,381.24c0,.79-.24,1.64-.71,2.54-.47.9-1.2,1.76-2.16,2.57s-2.19,1.47-3.67,1.97c-1.47.5-3.13.74-4.98.74-3.93,0-6.99-1.14-9.2-3.43-2.2-2.29-3.31-5.36-3.31-9.21,0-2.61.5-4.91,1.51-6.91,1.01-2,2.47-3.55,4.38-4.64s4.19-1.64,6.84-1.64c1.64,0,3.15.24,4.53.72,1.37.48,2.54,1.1,3.49,1.86.95.76,1.68,1.57,2.19,2.43s.76,1.66.76,2.41-.28,1.4-.85,1.93c-.57.53-1.25.79-2.06.79-.53,0-.97-.14-1.32-.41-.35-.27-.74-.71-1.18-1.32-.78-1.18-1.59-2.06-2.43-2.65-.85-.59-1.92-.88-3.22-.88-1.88,0-3.39.73-4.54,2.2s-1.72,3.47-1.72,6.02c0,1.2.15,2.29.44,3.29.29,1,.72,1.85,1.28,2.56.56.71,1.23,1.24,2.03,1.61.79.36,1.66.55,2.61.55,1.27,0,2.36-.29,3.27-.88.91-.59,1.71-1.49,2.41-2.7.39-.71.81-1.27,1.26-1.68.45-.4,1-.61,1.65-.61.78,0,1.42.3,1.93.88.51.59.77,1.22.77,1.89Z"/>
      <path class="cls-2" d="m801.71,360.31c-.88,0-1.64-.27-2.27-.81-.63-.54-.94-1.31-.94-2.3,0-.9.32-1.64.97-2.22s1.39-.87,2.25-.87,1.55.26,2.19.79c.64.53.95,1.3.95,2.3s-.31,1.74-.93,2.29c-.62.55-1.36.83-2.21.83Zm3.14,6.56v18.37c0,1.27-.3,2.23-.91,2.89s-1.37.98-2.3.98-1.69-.33-2.27-1-.87-1.62-.87-2.86v-18.18c0-1.26.29-2.2.87-2.84.58-.64,1.34-.95,2.27-.95s1.7.32,2.3.95c.61.64.91,1.52.91,2.65Z"/>
      <path class="cls-2" d="m827.48,385.52c-1.54,1.2-3.02,2.09-4.46,2.69s-3.05.9-4.83.9c-1.63,0-3.06-.32-4.29-.97s-2.18-1.52-2.85-2.62c-.67-1.1-1-2.3-1-3.58,0-1.74.55-3.22,1.65-4.45,1.1-1.23,2.62-2.05,4.54-2.47.4-.09,1.4-.3,3-.63s2.97-.62,4.11-.9c1.14-.27,2.38-.6,3.71-.99-.08-1.68-.42-2.91-1.01-3.69-.6-.78-1.84-1.18-3.71-1.18-1.61,0-2.83.23-3.64.68-.81.45-1.51,1.13-2.1,2.03-.58.9-.99,1.49-1.23,1.78-.24.29-.76.43-1.55.43-.71,0-1.33-.23-1.85-.69-.52-.46-.78-1.04-.78-1.76,0-1.12.4-2.2,1.19-3.26.79-1.06,2.03-1.92,3.7-2.61,1.68-.68,3.76-1.02,6.26-1.02,2.79,0,4.99.33,6.59.99,1.6.66,2.73,1.7,3.39,3.13.66,1.43.99,3.32.99,5.68,0,1.49,0,2.76-.01,3.79,0,1.04-.02,2.2-.03,3.47,0,1.2.2,2.44.59,3.74.4,1.3.59,2.13.59,2.5,0,.65-.31,1.25-.92,1.78s-1.31.8-2.08.8c-.65,0-1.3-.31-1.93-.92s-1.31-1.5-2.03-2.67Zm-.42-9.2c-.93.34-2.28.7-4.06,1.08-1.78.38-3.01.66-3.69.84-.68.18-1.34.53-1.96,1.05-.62.52-.93,1.25-.93,2.18s.36,1.78,1.09,2.46,1.68,1.01,2.86,1.01c1.26,0,2.42-.28,3.48-.83,1.06-.55,1.84-1.26,2.34-2.13.57-.96.86-2.54.86-4.75v-.91Z"/>
      <path class="cls-2" d="m839.75,385.24v-27.56c0-1.27.28-2.23.85-2.89s1.33-.98,2.29-.98,1.74.32,2.33.97c.59.64.88,1.61.88,2.9v27.56c0,1.29-.3,2.25-.9,2.9s-1.37.97-2.32.97-1.69-.33-2.27-1-.87-1.62-.87-2.86Z"/>
      <path class="cls-2" d="m876.55,383.38l-5.47-21.74v23.56c0,1.3-.29,2.28-.87,2.93s-1.35.98-2.32.98-1.69-.32-2.28-.97-.88-1.63-.88-2.94v-27c0-1.49.39-2.49,1.16-3.01.78-.52,1.82-.78,3.14-.78h2.14c1.29,0,2.22.12,2.81.35s1.01.65,1.29,1.26.6,1.59.95,2.96l4.96,18.69,4.96-18.69c.36-1.37.68-2.35.95-2.96s.71-1.02,1.29-1.26,1.52-.35,2.81-.35h2.14c1.32,0,2.37.26,3.14.78.78.52,1.16,1.52,1.16,3.01v27c0,1.3-.29,2.28-.87,2.93s-1.36.98-2.34.98c-.92,0-1.67-.33-2.26-.98s-.88-1.63-.88-2.93v-23.56l-5.47,21.74c-.36,1.41-.65,2.45-.87,3.11-.22.66-.64,1.26-1.25,1.8s-1.44.81-2.51.81c-.81,0-1.49-.17-2.05-.52s-.99-.79-1.3-1.34c-.31-.54-.56-1.14-.73-1.8-.18-.66-.36-1.35-.55-2.06Z"/>
      <path class="cls-2" d="m922.04,377.74h-12.43c.02,1.44.31,2.72.87,3.82.57,1.1,1.32,1.93,2.26,2.49s1.98.84,3.11.84c.76,0,1.45-.09,2.08-.27.63-.18,1.24-.46,1.83-.84.59-.38,1.13-.79,1.63-1.22.5-.43,1.14-1.02,1.93-1.77.33-.28.79-.42,1.4-.42.65,0,1.18.18,1.58.54.4.36.61.86.61,1.51,0,.57-.22,1.25-.68,2.01s-1.13,1.51-2.04,2.21c-.91.71-2.05,1.29-3.42,1.76s-2.95.7-4.74.7c-4.08,0-7.25-1.16-9.52-3.49-2.27-2.33-3.4-5.49-3.4-9.47,0-1.88.28-3.62.84-5.23s1.37-2.98,2.44-4.13c1.07-1.15,2.39-2.03,3.96-2.64,1.57-.61,3.31-.92,5.21-.92,2.48,0,4.61.52,6.39,1.57,1.78,1.05,3.11,2.4,3.99,4.06.88,1.66,1.33,3.35,1.33,5.07,0,1.6-.46,2.63-1.37,3.11-.92.47-2.2.71-3.86.71Zm-12.43-3.61h11.52c-.15-2.17-.74-3.8-1.76-4.88-1.02-1.08-2.35-1.62-4.02-1.62s-2.88.55-3.9,1.64-1.63,2.71-1.85,4.85Z"/>
      <path class="cls-2" d="m950.04,385.47v-.63c-.85.98-1.7,1.77-2.53,2.39-.83.61-1.73,1.08-2.7,1.4s-2.03.48-3.18.48c-1.52,0-2.93-.32-4.23-.97s-2.42-1.56-3.36-2.76c-.95-1.19-1.66-2.6-2.15-4.21-.49-1.61-.73-3.36-.73-5.24,0-3.97.97-7.07,2.91-9.29,1.94-2.22,4.49-3.33,7.66-3.33,1.83,0,3.38.31,4.63.94,1.26.63,2.48,1.59,3.68,2.9v-9.38c0-1.3.26-2.29.78-2.96.52-.67,1.26-1,2.22-1s1.7.31,2.22.92c.52.61.78,1.52.78,2.71v28.03c0,1.21-.28,2.12-.84,2.72s-1.28.91-2.16.91-1.59-.31-2.15-.94-.85-1.52-.85-2.69Zm-12.5-9.33c0,1.72.27,3.19.8,4.4s1.27,2.12,2.2,2.74c.93.61,1.95.92,3.05.92s2.14-.29,3.06-.87,1.66-1.47,2.21-2.68c.55-1.2.83-2.7.83-4.5,0-1.69-.28-3.15-.83-4.36-.55-1.22-1.3-2.15-2.23-2.79-.94-.64-1.97-.97-3.08-.97s-2.2.33-3.12.99c-.92.66-1.63,1.61-2.13,2.84-.5,1.23-.76,2.67-.76,4.29Z"/>
      <path class="cls-2" d="m965.64,360.31c-.88,0-1.64-.27-2.27-.81-.63-.54-.94-1.31-.94-2.3,0-.9.32-1.64.97-2.22s1.39-.87,2.25-.87,1.55.26,2.19.79c.64.53.95,1.3.95,2.3s-.31,1.74-.93,2.29c-.62.55-1.36.83-2.21.83Zm3.14,6.56v18.37c0,1.27-.3,2.23-.91,2.89s-1.37.98-2.3.98-1.69-.33-2.27-1-.87-1.62-.87-2.86v-18.18c0-1.26.29-2.2.87-2.84.58-.64,1.34-.95,2.27-.95s1.7.32,2.3.95c.61.64.91,1.52.91,2.65Z"/>
      <path class="cls-2" d="m991.41,385.52c-1.54,1.2-3.02,2.09-4.46,2.69s-3.05.9-4.83.9c-1.63,0-3.06-.32-4.29-.97s-2.18-1.52-2.85-2.62c-.67-1.1-1-2.3-1-3.58,0-1.74.55-3.22,1.65-4.45,1.1-1.23,2.62-2.05,4.54-2.47.4-.09,1.4-.3,3-.63s2.97-.62,4.11-.9c1.14-.27,2.38-.6,3.71-.99-.08-1.68-.42-2.91-1.01-3.69-.6-.78-1.84-1.18-3.71-1.18-1.61,0-2.83.23-3.64.68-.81.45-1.51,1.13-2.1,2.03-.58.9-.99,1.49-1.23,1.78-.24.29-.76.43-1.55.43-.71,0-1.33-.23-1.85-.69-.52-.46-.78-1.04-.78-1.76,0-1.12.4-2.2,1.19-3.26.79-1.06,2.03-1.92,3.7-2.61,1.68-.68,3.76-1.02,6.26-1.02,2.79,0,4.99.33,6.59.99,1.6.66,2.73,1.7,3.39,3.13.66,1.43.99,3.32.99,5.68,0,1.49,0,2.76-.01,3.79,0,1.04-.02,2.2-.03,3.47,0,1.2.2,2.44.59,3.74.4,1.3.59,2.13.59,2.5,0,.65-.31,1.25-.92,1.78s-1.31.8-2.08.8c-.65,0-1.3-.31-1.93-.92-.64-.61-1.31-1.5-2.03-2.67Zm-.42-9.2c-.93.34-2.28.7-4.06,1.08-1.78.38-3.01.66-3.69.84-.68.18-1.34.53-1.96,1.05-.62.52-.93,1.25-.93,2.18s.36,1.78,1.09,2.46,1.68,1.01,2.86,1.01c1.26,0,2.42-.28,3.48-.83,1.06-.55,1.84-1.26,2.34-2.13.57-.96.86-2.54.86-4.75v-.91Z"/>
    </g>
    <g>
      <rect class="cls-2" x="595.28" y="473.39" width="595.28" height="368.5"/>
      <g>
        <rect class="cls-1" x="751.18" y="508.2" width="283.46" height="283.46" rx="141.73" ry="141.73"/>
        <g>
          <path class="cls-2" d="m965.14,566.27h-16.89s-.08,0-.12,0c-1.47-.02-2.95.53-4.08,1.66l-100.74,144.92v-140.9c0-3.14-2.54-5.68-5.68-5.68h-16.98c-3.14,0-5.68,2.54-5.68,5.68v158.71c0,3.14,2.54,5.68,5.68,5.68h16.98s.04,0,.06,0c.04,0,.09,0,.13,0,.06,0,.13,0,.19,0,1.35-.07,2.69-.61,3.72-1.65l.26-.37c.22-.26.41-.54.58-.83l99.96-143.8v140.94c0,3.16,2.56,5.73,5.73,5.73h16.89c3.16,0,5.73-2.56,5.73-5.73v-158.63c0-3.16-2.56-5.73-5.73-5.73Z"/>
          <path class="cls-2" d="m941.51,718.92c-4.03,2.12-8.64,3.31-13.53,3.25-15.29-.18-27.79-12.64-28.01-27.93-.23-15.85,12.55-28.76,28.34-28.76,4.75,0,9.23,1.17,13.17,3.24,1.11.58,2.47.35,3.31-.58.01-.01.02-.02.03-.04.99-1.09.96-2.74-.06-3.8-7.86-8.15-18.94-13.17-31.19-13-23.37.32-42.22,19.69-41.92,43.06.29,23.23,19.22,41.97,42.52,41.97,12.04,0,22.9-5,30.64-13.04,1-1.04,1-2.69.02-3.76-.01-.01-.02-.02-.03-.04-.83-.92-2.19-1.17-3.29-.59Z"/>
          <path class="cls-2" d="m861.73,599.96l10.29-5.94c.75-.43,1.69-.33,2.32.25l12.35,14.04c1.43,1.29,3.67,0,3.27-1.88l-5.93-17.68c-.18-.84.21-1.7.95-2.13l10.34-5.94c1.67-.96,1.14-3.49-.78-3.7l-11.85-1.27c-.86-.09-1.55-.72-1.73-1.57l-2.45-11.67c-.4-1.88-2.97-2.16-3.76-.4l-4.87,10.88c-.35.78-1.17,1.25-2.02,1.16l-11.85-1.27c-1.91-.21-2.97,2.16-1.54,3.45l8.84,8c.64.58.83,1.5.48,2.28l-4.86,10.86c-.79,1.76,1.14,3.49,2.8,2.53Z"/>
        </g>
      </g>
    </g>
    <g>
      <rect class="cls-2" x="161.3" y="508.2" width="283.46" height="283.46" rx="141.73" ry="141.73"/>
      <g>
        <path class="cls-1" d="m375.26,566.27h-16.89s-.08,0-.12,0c-1.47-.02-2.95.53-4.08,1.66l-100.74,144.92v-140.9c0-3.14-2.54-5.68-5.68-5.68h-16.98c-3.14,0-5.68,2.54-5.68,5.68v158.71c0,3.14,2.54,5.68,5.68,5.68h16.98s.04,0,.06,0c.04,0,.09,0,.13,0,.06,0,.13,0,.19,0,1.35-.07,2.69-.61,3.72-1.65l.26-.37c.22-.26.41-.54.58-.83l99.96-143.8v140.94c0,3.16,2.56,5.73,5.73,5.73h16.89c3.16,0,5.73-2.56,5.73-5.73v-158.63c0-3.16-2.56-5.73-5.73-5.73Z"/>
        <path class="cls-1" d="m351.63,718.92c-4.03,2.12-8.64,3.31-13.53,3.25-15.29-.18-27.79-12.64-28.01-27.93s12.55-28.76,28.34-28.76c4.75,0,9.23,1.17,13.17,3.24,1.11.58,2.47.35,3.31-.58.01-.01.02-.02.03-.04.99-1.09.96-2.74-.06-3.8-7.86-8.15-18.94-13.17-31.19-13-23.37.32-42.22,19.69-41.92,43.06.29,23.23,19.22,41.97,42.52,41.97,12.04,0,22.9-5,30.64-13.04,1-1.04,1-2.69.02-3.76-.01-.01-.02-.02-.03-.04-.83-.92-2.19-1.17-3.29-.59Z"/>
        <path class="cls-1" d="m271.85,599.96l10.29-5.94c.75-.43,1.69-.33,2.32.25l12.35,14.04c1.43,1.29,3.67,0,3.27-1.88l-5.93-17.68c-.18-.84.21-1.7.95-2.13l10.34-5.94c1.67-.96,1.14-3.49-.78-3.7l-11.85-1.27c-.86-.09-1.55-.72-1.73-1.57l-2.45-11.67c-.4-1.88-2.97-2.16-3.76-.4l-4.87,10.88c-.35.78-1.17,1.25-2.02,1.16l-11.85-1.27c-1.91-.21-2.97,2.16-1.54,3.45l8.84,8c.64.58.83,1.5.48,2.28l-4.86,10.86c-.79,1.76,1.14,3.49,2.8,2.53Z"/>
      </g>
    </g>
  </g>
</svg>